<?xml version="1.0" encoding="utf-8"?>
<!-- Generator: Adobe Illustrator 23.0.5, SVG Export Plug-In . SVG Version: 6.00 Build 0)  -->
<svg version="1.1" id="Layer_1" xmlns="http://www.w3.org/2000/svg" xmlns:xlink="http://www.w3.org/1999/xlink" x="0px" y="0px"
	 viewBox="0 0 1000 1000" style="enable-background:new 0 0 1000 1000;" xml:space="preserve">
<style type="text/css">
	.st0{clip-path:url(#SVGID_2_);fill:url(#SVGID_3_);}
	.st1{clip-path:url(#SVGID_5_);fill:url(#SVGID_6_);}
	.st2{clip-path:url(#SVGID_8_);fill:url(#SVGID_9_);}
	.st3{clip-path:url(#SVGID_11_);fill:url(#SVGID_12_);}
	.st4{clip-path:url(#SVGID_14_);fill:url(#SVGID_15_);}
	.st5{clip-path:url(#SVGID_17_);fill:#FFFFFF;}
	.st6{fill:#FFFFFF;}
	.st7{clip-path:url(#SVGID_19_);fill:url(#SVGID_20_);}
	.st8{clip-path:url(#SVGID_22_);fill:url(#SVGID_23_);}
	.st9{clip-path:url(#SVGID_25_);fill:url(#SVGID_26_);}
	.st10{clip-path:url(#SVGID_28_);fill:url(#SVGID_29_);}
	.st11{clip-path:url(#SVGID_31_);fill:url(#SVGID_32_);}
	.st12{clip-path:url(#SVGID_34_);fill:url(#SVGID_35_);}
	.st13{clip-path:url(#SVGID_37_);fill:url(#SVGID_38_);}
</style>
<g>
	<defs>
		<path id="SVGID_1_" d="M281.19,331.64h-6.77l-70.73,164.61h10.48l24.67-57.64l34.71,59.16h6.33l35.15-60.47l25.54,60.47h10.48
			L281.19,331.64z M277.37,483.65l-32.64-56.37l32.64-80.52l32.67,80.08L277.37,483.65z"/>
	</defs>
	<clipPath id="SVGID_2_">
		<use xlink:href="#SVGID_1_"  style="overflow:visible;"/>
	</clipPath>
	
		<linearGradient id="SVGID_3_" gradientUnits="userSpaceOnUse" x1="9.094947e-13" y1="1000" x2="1" y2="1000" gradientTransform="matrix(0 -166.1299 -166.1299 0 166407.3125 497.77)">
		<stop  offset="0" style="stop-color:#E1C5A0"/>
		<stop  offset="0.0257" style="stop-color:#DDC19C"/>
		<stop  offset="0.2034" style="stop-color:#C6A681"/>
		<stop  offset="0.3851" style="stop-color:#B6936E"/>
		<stop  offset="0.5716" style="stop-color:#AC8863"/>
		<stop  offset="0.7703" style="stop-color:#A9845F"/>
		<stop  offset="1" style="stop-color:#7D5736"/>
	</linearGradient>
	<rect x="203.69" y="331.64" class="st0" width="147.36" height="166.13"/>
</g>
<g>
	<defs>
		<polygon id="SVGID_4_" points="367.42,437.52 432.04,397.57 432.04,389.28 366.71,389.22 367.42,340.81 463.04,340.81 
			463.04,331.64 356.94,331.64 356.94,398.45 413.27,398.45 356.94,433.37 356.94,497.77 367.42,497.77 		"/>
	</defs>
	<clipPath id="SVGID_5_">
		<use xlink:href="#SVGID_4_"  style="overflow:visible;"/>
	</clipPath>
	
		<linearGradient id="SVGID_6_" gradientUnits="userSpaceOnUse" x1="-9.094947e-13" y1="1000" x2="1" y2="1000" gradientTransform="matrix(0 -166.131 -166.131 0 166540.9688 497.774)">
		<stop  offset="0" style="stop-color:#E1C5A0"/>
		<stop  offset="0.0257" style="stop-color:#DDC19C"/>
		<stop  offset="0.2034" style="stop-color:#C6A681"/>
		<stop  offset="0.3851" style="stop-color:#B6936E"/>
		<stop  offset="0.5716" style="stop-color:#AC8863"/>
		<stop  offset="0.7703" style="stop-color:#A9845F"/>
		<stop  offset="1" style="stop-color:#7D5736"/>
	</linearGradient>
	<rect x="356.94" y="331.64" class="st1" width="106.1" height="166.13"/>
</g>
<g>
	<defs>
		<polygon id="SVGID_7_" points="530.72,497.77 540.32,497.77 540.32,372.25 491.2,341.47 599.7,341.47 599.7,331.64 471.55,331.64 
			471.55,341.47 530.72,377.05 		"/>
	</defs>
	<clipPath id="SVGID_8_">
		<use xlink:href="#SVGID_7_"  style="overflow:visible;"/>
	</clipPath>
	
		<linearGradient id="SVGID_9_" gradientUnits="userSpaceOnUse" x1="-9.094947e-13" y1="1000" x2="1" y2="1000" gradientTransform="matrix(0 -166.131 -166.131 0 166666.6094 497.774)">
		<stop  offset="0" style="stop-color:#E1C5A0"/>
		<stop  offset="0.0257" style="stop-color:#DDC19C"/>
		<stop  offset="0.2034" style="stop-color:#C6A681"/>
		<stop  offset="0.3851" style="stop-color:#B6936E"/>
		<stop  offset="0.5716" style="stop-color:#AC8863"/>
		<stop  offset="0.7703" style="stop-color:#A9845F"/>
		<stop  offset="1" style="stop-color:#7D5736"/>
	</linearGradient>
	<rect x="471.55" y="331.64" class="st2" width="128.15" height="166.13"/>
</g>
<g>
	<defs>
		<path id="SVGID_10_" d="M662.58,397.79L662.58,397.79 M607.56,331.64v66.15c0,0,53.9,0.44,55,0.01c-1.1,0.66-55,34.26-55,34.26
			v64.62h107.41v-8.73h-97.8v-51.08l64.4-37.99v-9.82l-65.06,0.22v-47.59h95.3v-10.05H607.56z"/>
	</defs>
	<clipPath id="SVGID_11_">
		<use xlink:href="#SVGID_10_"  style="overflow:visible;"/>
	</clipPath>
	
		<linearGradient id="SVGID_12_" gradientUnits="userSpaceOnUse" x1="0" y1="1000" x2="1" y2="1000" gradientTransform="matrix(0 -165.04 -165.04 0 165701.25 496.68)">
		<stop  offset="0" style="stop-color:#E1C5A0"/>
		<stop  offset="0.0257" style="stop-color:#DDC19C"/>
		<stop  offset="0.2034" style="stop-color:#C6A681"/>
		<stop  offset="0.3851" style="stop-color:#B6936E"/>
		<stop  offset="0.5716" style="stop-color:#AC8863"/>
		<stop  offset="0.7703" style="stop-color:#A9845F"/>
		<stop  offset="1" style="stop-color:#7D5736"/>
	</linearGradient>
	<rect x="607.56" y="331.64" class="st3" width="107.41" height="165.04"/>
</g>
<g>
	<defs>
		<path id="SVGID_13_" d="M732.3,341.3h54.1l-54.1,130.73V341.3z M795.56,341.3c0,0,37.19,12.82,28.84,53.32
			c-4.95,18.86-17.31,29.99-26.59,29.99h-36.37L795.56,341.3z M722.47,331.64v166.13h9.01l25.73-62.82h29.19l39.22,62.82h11.45
			l-39.25-63.22h-0.03c8.57-1.74,36.81-10.4,36.81-49.2c0-8.01-1.08-14.86-2.85-20.72c-5.97-19.68-24.31-32.99-44.87-32.99H722.47z"
			/>
	</defs>
	<clipPath id="SVGID_14_">
		<use xlink:href="#SVGID_13_"  style="overflow:visible;"/>
	</clipPath>
	
		<linearGradient id="SVGID_15_" gradientUnits="userSpaceOnUse" x1="9.094947e-13" y1="1000" x2="1" y2="1000" gradientTransform="matrix(0 -166.1299 -166.1299 0 166909.7188 497.77)">
		<stop  offset="0" style="stop-color:#E1C5A0"/>
		<stop  offset="0.0257" style="stop-color:#DDC19C"/>
		<stop  offset="0.2034" style="stop-color:#C6A681"/>
		<stop  offset="0.3851" style="stop-color:#B6936E"/>
		<stop  offset="0.5716" style="stop-color:#AC8863"/>
		<stop  offset="0.7703" style="stop-color:#A9845F"/>
		<stop  offset="1" style="stop-color:#7D5736"/>
	</linearGradient>
	<rect x="722.47" y="331.64" class="st4" width="114.6" height="166.13"/>
</g>
<g>
	<defs>
		<rect id="SVGID_16_" x="0" width="1000" height="1000"/>
	</defs>
	<clipPath id="SVGID_17_">
		<use xlink:href="#SVGID_16_"  style="overflow:visible;"/>
	</clipPath>
	<rect x="205.85" y="686.16" class="st5" width="627.19" height="5.73"/>
	<rect x="409.99" y="297.1" class="st5" width="422.76" height="5.1"/>
	<rect x="206.65" y="297.1" class="st5" width="49.9" height="5.1"/>
</g>
<g>
	<path class="st6" d="M281.67,313.14c-2.71-1.46-4.84-3.48-6.39-6.06c-1.55-2.58-2.33-5.51-2.33-8.77c0-3.26,0.78-6.18,2.33-8.77
		c1.55-2.58,3.68-4.61,6.39-6.06c2.71-1.46,5.76-2.19,9.14-2.19c2.85,0,5.43,0.5,7.73,1.5c2.3,1,4.24,2.44,5.8,4.32l-4.89,4.51
		c-2.23-2.57-4.98-3.85-8.27-3.85c-2.04,0-3.85,0.45-5.45,1.34c-1.6,0.89-2.84,2.14-3.74,3.74c-0.89,1.6-1.34,3.42-1.34,5.45
		c0,2.04,0.45,3.85,1.34,5.45s2.14,2.84,3.74,3.74c1.6,0.89,3.41,1.34,5.45,1.34c3.29,0,6.05-1.3,8.27-3.9l4.89,4.51
		c-1.57,1.91-3.51,3.37-5.83,4.37c-2.32,1-4.9,1.5-7.75,1.5C287.42,315.32,284.38,314.59,281.67,313.14z"/>
	<path class="st6" d="M329.68,307.71h-15.27l-2.91,7.05h-7.8l14.66-32.9h7.52l14.71,32.9h-7.99L329.68,307.71z M327.29,301.93
		l-5.22-12.6l-5.22,12.6H327.29z"/>
	<path class="st6" d="M350.83,287.97v8.69h15.23v6.11h-15.23v11.98h-7.61v-32.9h24.86v6.11H350.83z"/>
	<path class="st6" d="M397.93,308.65v6.11h-25.47v-32.9h24.86v6.11h-17.3v7.14h15.28v5.92h-15.28v7.61H397.93z M386.98,272.41h7.9
		l-8.51,6.77h-5.73L386.98,272.41z"/>
</g>
<g>
	<defs>
		<path id="SVGID_18_" d="M778.08,571.11l-0.16-0.02c-1.39-0.12-2.76-0.25-4.12-0.42C775.21,570.84,776.64,570.99,778.08,571.11"/>
	</defs>
	<clipPath id="SVGID_19_">
		<use xlink:href="#SVGID_18_"  style="overflow:visible;"/>
	</clipPath>
	
		<linearGradient id="SVGID_20_" gradientUnits="userSpaceOnUse" x1="7.659100e-04" y1="1000.0004" x2="1" y2="1000.0004" gradientTransform="matrix(0 0.4383 0.4383 0 337.6449 570.6717)">
		<stop  offset="0" style="stop-color:#E1C5A0"/>
		<stop  offset="0.0257" style="stop-color:#DDC19C"/>
		<stop  offset="0.2034" style="stop-color:#C6A681"/>
		<stop  offset="0.3851" style="stop-color:#B6936E"/>
		<stop  offset="0.5716" style="stop-color:#AC8863"/>
		<stop  offset="0.7703" style="stop-color:#A9845F"/>
		<stop  offset="1" style="stop-color:#7D5736"/>
	</linearGradient>
	<rect x="773.8" y="570.67" class="st7" width="4.28" height="0.44"/>
</g>
<g>
	<defs>
		<path id="SVGID_21_" d="M769.91,570.1l4.75,0.58l-4.98-0.62C769.76,570.08,769.83,570.09,769.91,570.1"/>
	</defs>
	<clipPath id="SVGID_22_">
		<use xlink:href="#SVGID_21_"  style="overflow:visible;"/>
	</clipPath>
	
		<linearGradient id="SVGID_23_" gradientUnits="userSpaceOnUse" x1="9.094947e-13" y1="999.9999" x2="0.9993" y2="999.9999" gradientTransform="matrix(0 0.6165 0.6165 0 155.7145 570.07)">
		<stop  offset="0" style="stop-color:#E1C5A0"/>
		<stop  offset="0.0257" style="stop-color:#DDC19C"/>
		<stop  offset="0.2034" style="stop-color:#C6A681"/>
		<stop  offset="0.3851" style="stop-color:#B6936E"/>
		<stop  offset="0.5716" style="stop-color:#AC8863"/>
		<stop  offset="0.7703" style="stop-color:#A9845F"/>
		<stop  offset="1" style="stop-color:#7D5736"/>
	</linearGradient>
	<rect x="769.68" y="570.07" class="st8" width="4.98" height="0.62"/>
</g>
<g>
	<defs>
		<path id="SVGID_24_" d="M803.44,507.4c-0.02,0-0.03-0.01-0.05-0.01l-8.88-1.32c-0.01,0-0.01,0-0.02,0L803.44,507.4z"/>
	</defs>
	<clipPath id="SVGID_25_">
		<use xlink:href="#SVGID_24_"  style="overflow:visible;"/>
	</clipPath>
	
		<linearGradient id="SVGID_26_" gradientUnits="userSpaceOnUse" x1="0" y1="1000" x2="1" y2="1000" gradientTransform="matrix(0 1.33 1.33 0 -530.9861 506.07)">
		<stop  offset="0" style="stop-color:#E1C5A0"/>
		<stop  offset="0.0257" style="stop-color:#DDC19C"/>
		<stop  offset="0.2034" style="stop-color:#C6A681"/>
		<stop  offset="0.3851" style="stop-color:#B6936E"/>
		<stop  offset="0.5716" style="stop-color:#AC8863"/>
		<stop  offset="0.7703" style="stop-color:#A9845F"/>
		<stop  offset="1" style="stop-color:#7D5736"/>
	</linearGradient>
	<rect x="794.5" y="506.07" class="st9" width="8.94" height="1.33"/>
</g>
<g>
	<defs>
		<path id="SVGID_27_" d="M397.15,565.29c-5.48,1.97-9.39,7.2-9.39,13.35c0,6.82,4.82,12.52,11.24,13.87l15.87,46.68l11.79-3.86
			l-16.99-44.8c3.89-2.52,6.46-6.91,6.46-11.89c0-5.49-3.12-10.25-7.68-12.6l6.42-33.97c0,0-10.37-2.64-11.18-2.85
			c0,0-0.01,0-0.01,0C402.85,529.22,397.15,565.29,397.15,565.29"/>
	</defs>
	<clipPath id="SVGID_28_">
		<use xlink:href="#SVGID_27_"  style="overflow:visible;"/>
	</clipPath>
	
		<linearGradient id="SVGID_29_" gradientUnits="userSpaceOnUse" x1="-1.387531e-06" y1="1000" x2="1" y2="1000" gradientTransform="matrix(0 109.9709 109.9709 0 -109563.6484 529.2191)">
		<stop  offset="0" style="stop-color:#E1C5A0"/>
		<stop  offset="0.0257" style="stop-color:#DDC19C"/>
		<stop  offset="0.2034" style="stop-color:#C6A681"/>
		<stop  offset="0.3851" style="stop-color:#B6936E"/>
		<stop  offset="0.5716" style="stop-color:#AC8863"/>
		<stop  offset="0.7703" style="stop-color:#A9845F"/>
		<stop  offset="1" style="stop-color:#7D5736"/>
	</linearGradient>
	<rect x="387.76" y="529.22" class="st10" width="38.9" height="109.97"/>
</g>
<g>
	<defs>
		<path id="SVGID_30_" d="M624.38,508.81h51.78l-51.78,123.83V508.81z M652.04,589.04l33.62-80.23c0,0,28.11,7.67,28.11,42.25
			c0,17.29-7.02,26.57-14.05,31.53c-5.19,3.66-10.95,6.84-17.3,7L652.04,589.04z M615.59,500v158.53h7.33l25.41-60.64h27.83
			l37.61,60.64h11.48l-38.36-61.2h-0.07c7.19-1.13,14.04-4.01,19.76-8.61c8.26-6.63,15.89-17.9,15.89-36.93
			c0-21.01-8.48-34.01-16.85-41.74c-7.06-6.51-16.36-10.05-25.97-10.05H615.59z"/>
	</defs>
	<clipPath id="SVGID_31_">
		<use xlink:href="#SVGID_30_"  style="overflow:visible;"/>
	</clipPath>
	
		<linearGradient id="SVGID_32_" gradientUnits="userSpaceOnUse" x1="0" y1="1000" x2="1" y2="1000" gradientTransform="matrix(0 158.53 158.53 0 -157859.5469 500)">
		<stop  offset="0" style="stop-color:#E1C5A0"/>
		<stop  offset="0.0257" style="stop-color:#DDC19C"/>
		<stop  offset="0.2034" style="stop-color:#C6A681"/>
		<stop  offset="0.3851" style="stop-color:#B6936E"/>
		<stop  offset="0.5716" style="stop-color:#AC8863"/>
		<stop  offset="0.7703" style="stop-color:#A9845F"/>
		<stop  offset="1" style="stop-color:#7D5736"/>
	</linearGradient>
	<rect x="615.59" y="500" class="st11" width="109.66" height="158.53"/>
</g>
<g>
	<defs>
		<path id="SVGID_33_" d="M750.61,561.62c-6.52-6.65-9.79-18.68-8.24-27.83c2.13-7.88,7.52-15,14.22-19.64
			c6.39-4.57,13.97-6.17,21.65-7.32c5.24-0.87,10.77-1.16,16.24-0.76l-24.84,64C762.2,568.79,755.48,566.42,750.61,561.62
			 M776.91,497.88c-6.53,1.03-13.46,2.35-19.46,5.35c-10.47,5.08-18.72,14.23-22.79,25.14c-3.25,8.98-1.33,18.95,1.96,27.62
			c11.68,29.36,45.79,21.9,70.49,26.36c11.27,1.98,22.28,8.98,28.43,18.56c5.71,9.23,3.62,23.08-2.17,32.23
			c-4.15,6.42-11.15,10.5-18.38,12.98c-11.33,3.8-23.99,4.73-35.77,2.89c-15.65-3.02-30.84-11.47-42.4-22.43l-5.92,6.04
			c16.25,15.24,37.69,26.14,60.35,25.85c13.59-0.18,27.49-2.68,39.07-10.33c15.85-10,22.5-35.54,12.69-51.72
			c-7.44-11.84-20.75-20.28-34.24-22.7c-8.92-1.95-20.08-1.73-30.68-2.61l25.37-63.71c10.41,2.4,19.85,7.78,25.63,17.21l8.2-4.07
			c-0.35-0.69-0.65-1.13-1.02-1.74c-10.13-15.55-28.62-22-46.61-22C785.34,496.8,781.05,497.17,776.91,497.88"/>
	</defs>
	<clipPath id="SVGID_34_">
		<use xlink:href="#SVGID_33_"  style="overflow:visible;"/>
	</clipPath>
	
		<linearGradient id="SVGID_35_" gradientUnits="userSpaceOnUse" x1="-1.887593e-07" y1="1000.0161" x2="1" y2="1000.0161" gradientTransform="matrix(0 161.6746 161.6746 0 -160885.3281 496.8011)">
		<stop  offset="0" style="stop-color:#E1C5A0"/>
		<stop  offset="0.0257" style="stop-color:#DDC19C"/>
		<stop  offset="0.2034" style="stop-color:#C6A681"/>
		<stop  offset="0.3851" style="stop-color:#B6936E"/>
		<stop  offset="0.5716" style="stop-color:#AC8863"/>
		<stop  offset="0.7703" style="stop-color:#A9845F"/>
		<stop  offset="1" style="stop-color:#7D5736"/>
	</linearGradient>
	<rect x="730.9" y="496.8" class="st12" width="121.92" height="161.96"/>
</g>
<g>
	<defs>
		<path id="SVGID_36_" d="M522.41,644.38l11.32,3.75C529.63,647.24,525.86,645.96,522.41,644.38 M222.97,580.52h81.05l-40.52,25.51
			L222.97,580.52z M490.55,596.99c0-5.09-0.03-16.53-0.07-29.94l31.73,77.24C499.36,633.68,490.55,609.64,490.55,596.99
			 M331.04,578.64c0-39.16,31.74-70.91,70.91-70.91c39.16,0,70.91,31.75,70.91,70.91c0,39.16-31.75,70.91-70.91,70.91
			C362.78,649.55,331.04,617.8,331.04,578.64 M599.7,496.68v88.6c0,10.48-1.85,20.91-5.78,30.62c-6.37,15.7-19.55,33.65-46.54,33.65
			c-4.88,0-9.38-0.51-13.55-1.4c-0.26-0.59-36.48-81.51-42.57-97.71l-0.32-0.97c-0.09-1.22-0.25-1.95-0.52-1.84
			c-0.04-12.79-0.08-25.52-0.12-35.06c-0.03-9.55-0.05-15.89-0.05-15.89h-9.02l1.13,73.61c-4.18-40.73-38.59-72.49-80.41-72.49
			c-39.75,0-72.79,28.68-79.57,66.48V500h-8.58v72.17h-99.41V500h-10.7v157.28h10.22v-72.23l51.02,30.75l48.87-30.99v72.47h8.58V593
			c6.78,37.8,39.82,66.48,79.57,66.48c42.71,0,77.7-33.13,80.63-75.1l0.21,13.51c0,0,5.35,61.59,63.99,61.59
			c58.64,0,60.78-66.21,60.78-66.21v-96.59H599.7z"/>
	</defs>
	<clipPath id="SVGID_37_">
		<use xlink:href="#SVGID_36_"  style="overflow:visible;"/>
	</clipPath>
	
		<linearGradient id="SVGID_38_" gradientUnits="userSpaceOnUse" x1="0" y1="1000" x2="1" y2="1000" gradientTransform="matrix(0 162.8 162.8 0 -162394.3594 496.68)">
		<stop  offset="0" style="stop-color:#E1C5A0"/>
		<stop  offset="0.0257" style="stop-color:#DDC19C"/>
		<stop  offset="0.2034" style="stop-color:#C6A681"/>
		<stop  offset="0.3851" style="stop-color:#B6936E"/>
		<stop  offset="0.5716" style="stop-color:#AC8863"/>
		<stop  offset="0.7703" style="stop-color:#A9845F"/>
		<stop  offset="1" style="stop-color:#7D5736"/>
	</linearGradient>
	<rect x="203.69" y="496.68" class="st13" width="403.87" height="162.8"/>
</g>
</svg>
