<svg width="301" height="197" viewBox="0 0 301 197" fill="none" xmlns="http://www.w3.org/2000/svg">
    <path d="M150.418 149.351C123.434 149.351 101.465 127.23 101.465 100.024C101.465 72.8178 123.434 50.7129 150.418 50.7129C177.402 50.7129 199.371 72.8335 199.371 100.04C199.371 127.246 177.402 149.351 150.418 149.351ZM150.418 52.2873C124.293 52.2873 103.027 73.6995 103.027 100.04C103.027 126.38 124.293 147.776 150.418 147.776C176.543 147.776 197.809 126.364 197.809 100.024C197.809 73.6837 176.543 52.2873 150.418 52.2873Z" fill="#E1B168"/>
    <path d="M150.417 168.07C145.839 168.07 141.261 167.598 136.808 166.685C132.464 165.787 128.214 164.449 124.136 162.717C120.136 161.017 116.277 158.891 112.667 156.451C109.089 154.026 105.73 151.224 102.683 148.138C99.6206 145.068 96.855 141.667 94.4331 138.077C94.1831 137.715 94.2925 137.227 94.6362 136.991C94.9956 136.755 95.48 136.834 95.7144 137.196C98.0737 140.722 100.792 144.029 103.777 147.036C106.761 150.043 110.042 152.783 113.542 155.144C117.058 157.537 120.839 159.6 124.746 161.269C128.73 162.969 132.886 164.26 137.121 165.142C145.808 166.937 155.011 166.937 163.699 165.142C167.933 164.276 172.105 162.969 176.074 161.269C179.98 159.6 183.746 157.537 187.277 155.144C190.777 152.767 194.058 150.027 197.042 147.036C200.027 144.029 202.73 140.722 205.105 137.196C205.355 136.834 205.839 136.739 206.183 136.991C206.543 137.227 206.636 137.731 206.386 138.077C203.964 141.683 201.199 145.068 198.136 148.138C195.089 151.208 191.73 154.011 188.152 156.451C184.542 158.907 180.683 161.017 176.683 162.717C172.605 164.449 168.339 165.787 164.011 166.685C159.574 167.598 154.996 168.07 150.417 168.07Z" fill="#E1B168"/>
    <path d="M205.761 63.2131C205.511 63.2131 205.261 63.0871 205.121 62.8667C202.761 59.34 200.043 56.0337 197.058 53.0266C194.074 50.0194 190.793 47.2957 187.293 44.9183C183.761 42.5252 179.996 40.4627 176.089 38.7938C172.105 37.0934 167.949 35.8024 163.714 34.9207C155.027 33.1259 145.824 33.1259 137.136 34.9207C132.902 35.8024 128.73 37.0934 124.761 38.7938C120.855 40.4627 117.074 42.5252 113.558 44.9183C110.074 47.2957 106.777 50.0194 103.792 53.0266C100.808 56.0337 98.105 59.34 95.73 62.8667C95.4956 63.2288 94.9956 63.3233 94.6519 63.0714C94.3081 62.8195 94.1987 62.3314 94.4487 61.985C96.8706 58.3796 99.6362 54.9946 102.699 51.9087C105.761 48.8229 109.121 46.0361 112.683 43.5958C116.292 41.1397 120.152 39.0299 124.152 37.3296C128.23 35.5977 132.496 34.2594 136.824 33.362C145.73 31.5199 155.136 31.5199 164.043 33.362C168.386 34.2594 172.636 35.5977 176.714 37.3296C180.714 39.0299 184.574 41.1397 188.183 43.5958C191.761 46.0361 195.121 48.8229 198.168 51.9087C201.23 54.9946 203.996 58.3796 206.418 61.985C206.668 62.3472 206.558 62.8352 206.214 63.0714C206.058 63.1816 205.902 63.2131 205.761 63.2131Z" fill="#E1B168"/>
    <path d="M76.7773 58.4114C76.8398 58.7893 76.7617 59.1987 76.543 59.671C76.3086 60.1748 75.9805 60.5369 75.5274 60.7258C75.0742 60.9148 74.4492 60.9305 73.6367 60.7573L71.6055 60.3165C70.9024 60.159 70.3399 60.0803 69.9336 60.0488C69.5274 60.0173 69.168 60.0961 68.8399 60.2535C68.5117 60.4267 68.2461 60.7416 68.0274 61.2139L67.2305 62.993L71.4805 64.9453C71.9492 65.1657 72.293 65.2759 72.543 65.2917C72.793 65.3074 72.9961 65.2444 73.168 65.0713C73.3399 64.8981 73.5273 64.5989 73.7617 64.1581L74.1367 64.3313C73.8399 64.8823 73.4648 65.6695 73.0117 66.6772C72.5273 67.7478 72.1836 68.5507 71.9961 69.086L71.6211 68.9128C71.8086 68.4563 71.9023 68.1099 71.918 67.8737C71.9336 67.6376 71.8555 67.4329 71.668 67.2597C71.4961 67.0865 71.168 66.8976 70.7149 66.6772L61.543 62.4735C61.0742 62.253 60.7305 62.1428 60.4805 62.1271C60.2305 62.1113 60.0273 62.1743 59.8555 62.3475C59.6836 62.5207 59.4961 62.8198 59.2617 63.2607L58.8867 63.0875C59.1523 62.5837 59.5117 61.8279 59.9648 60.836C60.1836 60.348 60.418 59.8127 60.668 59.2301C60.918 58.6319 61.0898 58.2382 61.1992 58.0178C61.6367 57.0417 62.1523 56.286 62.7305 55.7507C63.3086 55.1996 63.918 54.869 64.5586 54.7588C65.1992 54.6486 65.8242 54.7273 66.4336 55.0107C66.918 55.2311 67.3555 55.5617 67.7305 56.0183C68.1211 56.4749 68.3867 57.0574 68.5273 57.7817C68.668 58.5059 68.6055 59.3246 68.3555 60.2693L68.4961 60.0646C68.8398 59.545 69.1836 59.1672 69.5117 58.9152C69.8399 58.6633 70.2149 58.5216 70.6211 58.4587C71.0274 58.4114 71.5274 58.4429 72.1055 58.5689L74.1992 58.9625C74.6055 59.057 74.9492 59.1199 75.1992 59.1357C75.4492 59.1514 75.6524 59.1199 75.8086 59.0569C75.9649 58.994 76.0742 58.868 76.1524 58.7106C76.2461 58.5059 76.2774 58.317 76.2305 58.128C76.1836 57.9391 76.0742 57.6872 75.918 57.3723L76.2461 57.1834C76.543 57.6242 76.7148 58.0493 76.7773 58.4114ZM67.918 59.4191C67.8711 58.8208 67.6523 58.3327 67.293 57.9549C66.9336 57.5612 66.4336 57.2306 65.8086 56.9472C64.793 56.4906 63.918 56.3804 63.1836 56.6166C62.4492 56.8685 61.8399 57.5298 61.3398 58.6319C61.168 59.0255 61.0742 59.3246 61.0742 59.5608C61.0742 59.7969 61.168 60.0016 61.3555 60.1748C61.543 60.348 61.8555 60.5369 62.293 60.7416L66.8398 62.8198L67.4023 61.5603C67.8086 60.7258 67.9805 60.0174 67.918 59.4191Z" fill="#E1B168"/>
    <path d="M83.2461 44.0857C83.8711 44.5423 84.6055 44.9989 85.4336 45.4869C84.8711 46.2112 83.9492 47.4707 82.6836 49.2656C81.168 51.391 80.043 53.0127 79.3086 54.1305L78.9805 53.8944C79.2461 53.485 79.418 53.1544 79.4648 52.934C79.5117 52.7136 79.4805 52.4774 79.3398 52.2885C79.1992 52.0838 78.918 51.8319 78.5117 51.5327L70.3086 45.6286C69.8867 45.3295 69.5742 45.1406 69.3398 45.0776C69.1055 45.0146 68.8867 45.0461 68.6836 45.1721C68.4805 45.298 68.2305 45.5657 67.9336 45.9593L67.6055 45.7231C68.4023 44.6525 69.5742 43.0623 71.0742 40.9211C72.2305 39.2837 73.043 38.1186 73.4961 37.4102C74.168 38.0084 74.793 38.5123 75.3711 38.9373C75.8086 39.2522 76.1524 39.4727 76.4336 39.6301L76.168 40.008C75.3867 39.5671 74.793 39.2995 74.3555 39.1578C73.918 39.0161 73.5117 39.0476 73.1523 39.2207C72.793 39.3939 72.4023 39.7718 71.9805 40.3701L70.9961 41.7556C70.7148 42.1492 70.543 42.4641 70.4805 42.7002C70.418 42.9206 70.4492 43.1411 70.5898 43.3457C70.7305 43.5504 70.9961 43.8023 71.418 44.1015L75.3086 46.9039L76.0898 45.8018C76.4805 45.2508 76.5898 44.747 76.3867 44.3376C76.1836 43.9125 75.9336 43.5504 75.6211 43.267C75.3086 42.9679 75.1055 42.7789 75.0117 42.7002L75.2773 42.3224C75.793 42.7475 76.293 43.1411 76.793 43.5032L77.5898 44.07C78.1523 44.4793 78.9492 44.9989 80.0117 45.6601L79.7461 46.038C79.668 45.9908 79.3711 45.8333 78.8867 45.5499C78.3867 45.2665 77.9336 45.1721 77.5273 45.2508C77.1211 45.3295 76.7461 45.5972 76.4336 46.0537L75.6523 47.1558L79.6211 50.0213C80.0273 50.3204 80.3555 50.5094 80.5899 50.5723C80.8242 50.6353 81.043 50.6038 81.2305 50.4621C81.418 50.3204 81.668 50.0528 81.9492 49.6592L82.8086 48.4469C83.3086 47.7541 83.5899 47.1558 83.6524 46.6678C83.7305 46.1797 83.6211 45.7074 83.3242 45.2508C83.0274 44.7942 82.5274 44.2589 81.8086 43.5976L82.0742 43.2198C82.3711 43.4087 82.7461 43.7236 83.2461 44.0857Z" fill="#E1B168"/>
    <path d="M89.4029 39.0627C90.4186 39.2674 91.3561 38.9525 92.2154 38.1023C92.5436 37.7717 92.7936 37.4095 92.9498 36.9844C93.1061 36.5593 93.1217 36.1185 93.0279 35.6462C92.9342 35.1738 92.6529 34.7173 92.2311 34.2922C91.8717 33.9143 91.4498 33.6624 90.9811 33.5522C90.5123 33.4262 89.9967 33.3948 89.4498 33.4577C88.9029 33.5207 88.2154 33.6467 87.3873 33.8356C86.4654 34.056 85.6998 34.1977 85.0904 34.2607C84.4654 34.3237 83.8717 34.2764 83.2623 34.119C82.6686 33.9615 82.1217 33.6152 81.6217 33.0956C81.0904 32.5446 80.7623 31.9463 80.6373 31.3323C80.5123 30.7025 80.5748 30.0885 80.8092 29.5059C81.0436 28.9234 81.4029 28.3723 81.9029 27.8843C82.1998 27.5851 82.4811 27.3647 82.7467 27.2073C83.0123 27.0498 83.2467 26.9396 83.4654 26.8609C83.6842 26.7979 83.9186 26.7349 84.1998 26.6877C84.5592 26.609 84.7936 26.5145 84.9029 26.4043C84.9967 26.3098 85.0123 26.1996 84.9654 26.0422C84.9186 25.9005 84.7936 25.6958 84.6061 25.4439L84.9342 25.1133C85.4342 25.7273 86.3717 26.7507 87.7467 28.1834L87.4186 28.514C86.9029 28.0417 86.3404 27.6953 85.7623 27.4434C85.1686 27.1915 84.5748 27.0971 83.9811 27.1758C83.3873 27.2545 82.8248 27.5379 82.3092 28.026C81.9654 28.3566 81.7311 28.7345 81.5904 29.1438C81.4654 29.5532 81.4342 29.9625 81.5436 30.3719C81.6529 30.7812 81.8561 31.1433 82.1686 31.4897C82.6842 32.025 83.2467 32.2927 83.8873 32.3084C84.5123 32.3241 85.1686 32.2454 85.8404 32.1037C86.5123 31.962 86.9654 31.8518 87.1998 31.7888C88.1842 31.5842 88.9967 31.4425 89.6217 31.3795C90.2467 31.3165 90.8561 31.3637 91.4342 31.5369C92.0123 31.7101 92.5436 32.0407 93.0123 32.5288C93.5904 33.1271 93.9498 33.7726 94.0748 34.4654C94.1998 35.1581 94.1373 35.8351 93.8717 36.4964C93.6061 37.1576 93.1842 37.7874 92.6061 38.3542C92.1373 38.8108 91.7154 39.1257 91.3248 39.3303C90.9342 39.5193 90.5279 39.661 90.0904 39.7554C89.7467 39.8341 89.5123 39.9286 89.3873 40.0388C89.2936 40.1333 89.2779 40.2435 89.3248 40.4009C89.3717 40.5426 89.4967 40.7473 89.6842 40.9992L89.3561 41.3298C88.8717 40.7631 87.7623 39.5665 86.0279 37.7559L86.3561 37.3623C87.3717 38.2912 88.3873 38.858 89.4029 39.0627Z" fill="#E1B168"/>
    <path d="M92.9023 21.8378C92.4648 21.1766 91.9336 20.4681 91.3398 19.7438C92.293 19.1456 93.9023 18.0907 96.1367 16.5792C98.3711 15.0835 99.9336 13.9972 100.84 13.3359C101.293 14.2019 101.746 14.9418 102.168 15.5874C102.543 16.1542 102.871 16.6107 103.137 16.9571L102.746 17.2248C102.074 16.4061 101.527 15.8235 101.121 15.4929C100.699 15.1623 100.262 15.0048 99.793 15.0363C99.3242 15.0678 98.7461 15.3197 98.043 15.792L97.1211 16.4061L103.543 26.0888C103.855 26.5611 104.137 26.876 104.355 27.0334C104.59 27.1909 104.855 27.2381 105.137 27.1594C105.418 27.0807 105.824 26.8917 106.34 26.5768L106.559 26.9232C105.949 27.2853 105.105 27.8364 104.043 28.5449C102.918 29.3006 102.09 29.8831 101.574 30.2767L101.355 29.9304C101.84 29.584 102.184 29.2849 102.355 29.0487C102.527 28.8125 102.59 28.5449 102.527 28.2772C102.465 27.9938 102.293 27.6317 101.98 27.1594L95.5586 17.4767L94.6367 18.0907C93.9336 18.563 93.4805 19.0039 93.2773 19.429C93.0742 19.8541 93.043 20.3264 93.1836 20.8302C93.3242 21.3498 93.6523 22.074 94.1523 23.0186L93.7617 23.2863C93.5742 22.8927 93.2773 22.4204 92.9023 21.8378Z" fill="#E1B168"/>
    <path d="M123.277 18.3118L123.434 18.6897C122.902 18.8786 122.23 19.1463 121.402 19.5084C120.34 19.965 119.559 20.3271 119.043 20.5947L118.887 20.2169C119.355 19.9965 119.668 19.7918 119.824 19.6029C119.98 19.4139 120.012 19.1935 119.902 18.9416C119.809 18.7212 119.605 18.4693 119.309 18.1544L116.84 15.5723L112.34 17.5246L112.418 19.8548C112.434 20.5947 112.543 21.1615 112.699 21.5551C112.871 21.9488 113.121 22.1849 113.465 22.2321C113.809 22.2951 114.246 22.2007 114.809 21.9802L114.965 22.3581C114.246 22.6258 113.512 22.9249 112.793 23.2398C112.23 23.4759 111.777 23.6964 111.418 23.901L111.262 23.5232C111.824 23.1138 112.074 22.3581 112.027 21.256L111.559 7.95213L111.855 7.82617L121.449 17.6821C122.105 18.3118 122.715 18.5323 123.277 18.3118ZM112.074 10.5499L112.324 17.0838L116.559 15.2575L112.074 10.5499Z" fill="#E1B168"/>
    <path d="M135.73 1.55893C135.527 1.71638 135.418 1.9368 135.387 2.22019C135.355 2.50359 135.402 2.8972 135.512 3.41675L136.762 9.4468C136.965 10.4072 137.074 11.2416 137.09 11.9501C137.105 12.6586 137.027 13.3041 136.824 13.8552C136.605 14.5007 136.215 15.0517 135.637 15.5241C135.059 15.9964 134.371 16.3113 133.574 16.4845C132.121 16.7836 130.934 16.6577 130.012 16.0909C129.543 15.8075 129.152 15.4768 128.855 15.099C128.559 14.7211 128.309 14.2645 128.105 13.682C127.902 13.1152 127.699 12.3595 127.512 11.4148L126.215 5.11713C126.105 4.61332 125.996 4.2512 125.871 4.04652C125.746 3.84185 125.559 3.7159 125.324 3.66866C125.09 3.63717 124.73 3.65292 124.246 3.73164L124.168 3.33803C124.746 3.25931 125.59 3.10187 126.73 2.86571C127.793 2.64529 128.637 2.44061 129.262 2.28317L129.34 2.67678C128.871 2.80273 128.527 2.92868 128.324 3.05464C128.121 3.18059 128.012 3.36952 127.98 3.62143C127.949 3.87334 127.98 4.23546 128.09 4.73927L129.465 11.3676C129.684 12.4382 129.934 13.3041 130.23 13.9811C130.512 14.6581 130.934 15.162 131.48 15.4926C132.027 15.8232 132.746 15.9019 133.637 15.713C135.043 15.4139 135.934 14.7526 136.324 13.7292C136.715 12.7059 136.73 11.3676 136.387 9.73019L135.09 3.47973C134.98 2.99166 134.855 2.6138 134.684 2.37764C134.512 2.14147 134.293 1.98403 134.012 1.92105C133.73 1.85808 133.355 1.85808 132.887 1.9368L132.762 1.54319C133.246 1.48021 133.934 1.35426 134.809 1.18107C135.605 1.00789 136.215 0.866188 136.637 0.740234L136.715 1.13384C136.262 1.25979 135.934 1.38575 135.73 1.55893Z" fill="#E1B168"/>
    <path d="M155.949 14.3599C155.637 14.5646 155.23 14.6748 154.73 14.6906C154.168 14.7063 153.715 14.5489 153.355 14.2182C152.996 13.8876 152.715 13.3208 152.512 12.5021L152.027 10.4711C151.855 9.76261 151.699 9.21156 151.543 8.8337C151.402 8.45584 151.168 8.1567 150.887 7.92053C150.605 7.68437 150.199 7.5899 149.684 7.5899L147.762 7.63714L147.84 12.3447C147.855 12.8642 147.902 13.2263 147.98 13.4625C148.074 13.6987 148.215 13.8561 148.449 13.9348C148.684 14.0136 149.027 14.0608 149.512 14.0765V14.4859C148.887 14.4544 148.027 14.4544 146.934 14.4701C145.762 14.4859 144.902 14.5174 144.34 14.5646V14.1552C144.824 14.1238 145.184 14.0608 145.402 13.9821C145.621 13.8876 145.777 13.7302 145.855 13.494C145.934 13.2578 145.965 12.88 145.965 12.3762L145.809 2.22112C145.809 1.70156 145.746 1.33944 145.668 1.10328C145.59 0.867114 145.434 0.709671 145.199 0.63095C144.965 0.552229 144.621 0.504996 144.137 0.489252V0.079902C144.699 0.11139 145.527 0.11139 146.621 0.0956462C147.152 0.079902 147.73 0.0641578 148.371 0.0484135C149.012 0.0326693 149.418 0.00118082 149.652 0.00118082C150.715 -0.0145634 151.605 0.127135 152.34 0.426275C153.074 0.725416 153.637 1.13477 154.012 1.67007C154.387 2.20537 154.59 2.80366 154.59 3.48066C154.605 4.01596 154.48 4.55127 154.246 5.10231C154.012 5.65336 153.59 6.14143 153.012 6.58227C152.449 7.02311 151.668 7.32225 150.73 7.47969L150.98 7.51118C151.59 7.60565 152.074 7.74735 152.449 7.93628C152.809 8.14095 153.105 8.4086 153.324 8.75498C153.543 9.10135 153.73 9.57368 153.871 10.1562L154.418 12.2345C154.512 12.6595 154.605 12.9744 154.699 13.2106C154.793 13.4468 154.902 13.6199 155.027 13.7302C155.152 13.8404 155.309 13.9033 155.496 13.8876C155.715 13.8876 155.902 13.8246 156.043 13.6987C156.184 13.5727 156.371 13.368 156.59 13.0846L156.902 13.3051C156.574 13.8089 156.262 14.1395 155.949 14.3599ZM151.262 6.72397C151.777 6.42483 152.121 6.03122 152.309 5.52741C152.496 5.03934 152.59 4.44106 152.574 3.74831C152.559 2.63047 152.277 1.78028 151.746 1.22923C151.215 0.662439 150.34 0.394787 149.152 0.410531C148.73 0.410531 148.418 0.473508 148.199 0.567973C147.98 0.662439 147.84 0.835625 147.777 1.08753C147.699 1.33944 147.668 1.70156 147.668 2.18963L147.746 7.22779L149.121 7.21204C150.043 7.18055 150.746 7.02311 151.262 6.72397Z" fill="#E1B168"/>
    <path d="M172.84 16.8475L172.762 17.2568C172.23 17.1151 171.512 16.9577 170.637 16.7845C169.496 16.5641 168.652 16.4224 168.074 16.3437L168.152 15.9343C168.668 16.013 169.043 16.0288 169.277 15.9658C169.512 15.9028 169.668 15.7454 169.715 15.4777C169.762 15.2416 169.746 14.9267 169.668 14.4858L169.074 10.9434L164.262 10.0145L163.027 11.9825C162.637 12.6123 162.387 13.1318 162.309 13.5569C162.23 13.982 162.309 14.3127 162.559 14.5488C162.809 14.785 163.23 14.9739 163.809 15.0999L163.73 15.5092C162.98 15.3203 162.215 15.1471 161.449 15.0054C160.855 14.8952 160.355 14.8165 159.949 14.7692L160.027 14.3599C160.715 14.3442 161.355 13.8561 161.934 12.9114L168.965 1.6543L169.293 1.71727L171.73 15.3045C171.871 16.1862 172.246 16.7058 172.84 16.8475ZM167.902 4.07891L164.465 9.63662L168.98 10.5183L167.902 4.07891Z" fill="#E1B168"/>
    <path d="M192.371 9.98359C192.121 9.99933 191.902 10.1253 191.715 10.33C191.527 10.5504 191.34 10.8968 191.152 11.3848L186.543 22.6734L186.105 22.5003L183.23 6.94495L179.152 16.9425C178.949 17.4306 178.84 17.8085 178.824 18.0919C178.809 18.3753 178.902 18.6114 179.09 18.8161C179.277 19.0208 179.621 19.2412 180.105 19.4616L179.949 19.8395C179.512 19.6191 178.887 19.3357 178.059 18.9893C177.309 18.6744 176.73 18.454 176.293 18.328L176.449 17.9502C176.887 18.1076 177.246 18.1863 177.496 18.1548C177.746 18.1391 177.965 18.0131 178.152 17.8085C178.34 17.6038 178.527 17.2417 178.715 16.7536L182.465 7.55898C182.652 7.08665 182.762 6.72453 182.777 6.47262C182.793 6.22071 182.715 6.01604 182.543 5.8586C182.371 5.70115 182.059 5.51222 181.621 5.30755L181.777 4.92969C182.168 5.13436 182.746 5.40201 183.496 5.70115C184.059 5.93732 184.559 6.12625 184.98 6.2522L187.402 19.3042L190.715 11.2116C190.918 10.7236 191.027 10.3457 191.043 10.0623C191.059 9.77891 190.98 9.54275 190.777 9.33807C190.59 9.1334 190.246 8.91298 189.762 8.69256L189.918 8.3147C190.355 8.53512 190.98 8.81851 191.809 9.16489C192.559 9.47977 193.137 9.70019 193.574 9.82614L193.418 10.204C192.98 10.0466 192.637 9.96784 192.371 9.98359Z" fill="#E1B168"/>
    <path d="M198.965 15.7768C199.402 15.1156 199.855 14.3598 200.293 13.5254C201.199 14.1866 202.777 15.2887 205.012 16.8002C207.23 18.3116 208.824 19.3665 209.777 19.9648C209.168 20.7205 208.637 21.4133 208.215 22.0588C207.84 22.6256 207.543 23.0979 207.34 23.4915L206.949 23.2238C207.449 22.2792 207.777 21.555 207.918 21.0511C208.059 20.5316 208.043 20.075 207.824 19.6499C207.621 19.2248 207.168 18.7682 206.465 18.2959L205.559 17.6819L199.105 27.3331C198.793 27.8054 198.605 28.1833 198.543 28.4509C198.48 28.7186 198.543 28.9862 198.715 29.2224C198.887 29.4586 199.215 29.7577 199.715 30.1198L199.48 30.4662C198.902 30.0254 198.09 29.4586 197.043 28.7343C195.918 27.9786 195.074 27.4276 194.512 27.0969L194.746 26.7506C195.262 27.0654 195.652 27.2701 195.934 27.3488C196.215 27.4276 196.48 27.3803 196.715 27.2229C196.949 27.0654 197.23 26.7506 197.543 26.2782L203.996 16.627L203.09 16.013C202.387 15.5407 201.809 15.2887 201.34 15.2573C200.871 15.2258 200.434 15.3675 200.012 15.6981C199.59 16.0287 199.043 16.6113 198.371 17.43L197.98 17.1623C198.246 16.8002 198.574 16.3436 198.965 15.7768Z" fill="#E1B168"/>
    <path d="M213.715 42.7001L213.434 42.9992C213.059 42.5741 212.559 42.0546 211.918 41.4248C211.09 40.6061 210.449 40.0078 210.012 39.6457L210.293 39.3466C210.684 39.6929 210.98 39.9134 211.215 39.9921C211.449 40.0708 211.652 40.0078 211.855 39.8189C212.012 39.6457 212.184 39.3623 212.355 38.9687L213.793 35.6939L210.293 32.2459L208.199 33.2063C207.527 33.5055 207.043 33.8203 206.746 34.1195C206.449 34.4344 206.34 34.7493 206.418 35.0956C206.496 35.442 206.746 35.8199 207.168 36.245L206.887 36.5441C206.355 35.9773 205.824 35.4105 205.262 34.8595C204.824 34.4344 204.449 34.088 204.137 33.8361L204.418 33.5369C205.012 33.8991 205.793 33.8518 206.793 33.3952L218.809 27.8848L219.043 28.1209L213.652 40.8108C213.262 41.6137 213.293 42.2593 213.715 42.7001ZM216.559 29.3017L210.652 32.0255L213.949 35.2688L216.559 29.3017Z" fill="#E1B168"/>
    <path d="M224.98 38.5593C225.621 38.1027 226.309 37.5516 227.012 36.9219C227.637 37.8665 228.715 39.4567 230.277 41.6766C231.824 43.8808 232.949 45.4238 233.621 46.3369C232.777 46.825 232.043 47.2973 231.418 47.7382C230.855 48.1318 230.418 48.4781 230.09 48.7615L229.824 48.3837C230.621 47.6909 231.184 47.1241 231.496 46.699C231.809 46.274 231.949 45.8174 231.902 45.345C231.855 44.8727 231.59 44.2902 231.105 43.5974L230.465 42.7L221.043 49.4385C220.59 49.7692 220.277 50.0526 220.121 50.2887C219.965 50.5249 219.934 50.7925 220.012 51.0759C220.09 51.3593 220.293 51.7529 220.637 52.2568L220.309 52.4929C219.934 51.8789 219.371 51.0602 218.637 50.0053C217.855 48.8875 217.262 48.0845 216.855 47.565L217.184 47.3288C217.543 47.8169 217.855 48.1318 218.09 48.305C218.324 48.4781 218.59 48.5254 218.871 48.4624C219.137 48.3994 219.512 48.1947 219.965 47.8799L229.387 41.1413L228.746 40.2439C228.262 39.5512 227.809 39.1103 227.371 38.9056C226.949 38.701 226.48 38.6852 225.965 38.8584C225.465 39.0159 224.746 39.3622 223.824 39.8818L223.559 39.5039C223.965 39.252 224.418 38.9529 224.98 38.5593Z" fill="#E1B168"/>
    <path d="M230.965 67.4338C230.262 67.7487 229.496 68.158 228.652 68.6461C228.309 67.7802 227.684 66.3474 226.777 64.3479C225.699 61.9705 224.871 60.1757 224.293 58.9634L224.668 58.7902C224.887 59.2311 225.09 59.5302 225.262 59.7034C225.434 59.8766 225.637 59.9395 225.887 59.9238C226.137 59.9081 226.48 59.7821 226.949 59.5774L236.121 55.3737C236.59 55.169 236.902 54.9644 237.074 54.7912C237.246 54.618 237.34 54.4133 237.324 54.1772C237.309 53.941 237.215 53.5946 237.027 53.138L237.402 52.9648C237.918 54.2086 238.715 56.0035 239.777 58.3966C240.605 60.2229 241.199 61.514 241.59 62.2697C240.746 62.5531 239.996 62.8522 239.355 63.1356C238.871 63.356 238.496 63.545 238.23 63.7182L238.043 63.2931C238.809 62.8365 239.34 62.4429 239.684 62.128C240.012 61.8131 240.199 61.451 240.23 61.0416C240.262 60.6323 240.137 60.1127 239.84 59.4515L239.137 57.9085C238.934 57.452 238.746 57.1528 238.59 56.9796C238.434 56.8064 238.23 56.7277 237.98 56.7592C237.746 56.775 237.387 56.9009 236.918 57.1056L232.559 59.1051L233.121 60.3489C233.402 60.9787 233.777 61.3093 234.23 61.3408C234.699 61.3723 235.137 61.325 235.543 61.1991C235.949 61.0731 236.215 60.9944 236.34 60.9629L236.527 61.388C235.902 61.6242 235.309 61.8761 234.762 62.128L233.887 62.5373C233.262 62.8207 232.402 63.2616 231.309 63.8441L231.121 63.419C231.199 63.3718 231.48 63.1986 231.965 62.8995C232.449 62.6003 232.762 62.2697 232.902 61.8603C233.043 61.451 232.996 61.0102 232.762 60.5063L232.199 59.2625L227.762 61.2935C227.293 61.4982 226.98 61.7029 226.809 61.8603C226.637 62.0178 226.559 62.2382 226.574 62.4744C226.59 62.7105 226.699 63.0569 226.902 63.4977L227.512 64.8675C227.855 65.639 228.23 66.19 228.621 66.5049C229.012 66.8198 229.465 66.9615 229.996 66.93C230.527 66.8985 231.246 66.7411 232.168 66.4419L232.355 66.867C231.98 66.993 231.527 67.1819 230.965 67.4338Z" fill="#E1B168"/>
    <path d="M76.3398 140.533L76.7617 141.54L68.6992 142.17L68.2773 141.163L73.3242 136.833L66.7148 137.463L66.293 136.455L72.3242 131.039L72.7617 132.078L67.543 136.534L74.3398 135.825L74.7461 136.801L69.5273 141.257L76.3398 140.533Z" fill="#E1B168"/>
    <path d="M78.0273 143.635L80.6992 148.264L79.8711 148.752L77.7148 145.036L75.668 146.233L77.5898 149.555L76.7617 150.043L74.8398 146.721L72.7305 147.964L74.9492 151.79L74.1211 152.278L71.3711 147.539L78.0273 143.635Z" fill="#E1B168"/>
    <path d="M84.2139 155.285C84.1202 154.875 83.9639 154.497 83.7139 154.167C83.4014 153.726 82.9952 153.395 82.5108 153.191C82.0264 152.986 81.5421 152.892 81.0108 152.955C80.4796 153.017 80.0108 153.191 79.5733 153.521C79.1514 153.836 78.8233 154.23 78.6202 154.718C78.4171 155.206 78.339 155.71 78.3858 156.229C78.4483 156.749 78.6202 157.237 78.9483 157.678C79.1827 158.008 79.4796 158.276 79.839 158.496C80.1983 158.717 80.5889 158.859 80.9952 158.937L80.8077 159.866C80.2764 159.772 79.7608 159.583 79.2921 159.299C78.8233 159.016 78.4327 158.654 78.1202 158.229C77.6827 157.631 77.4327 156.985 77.3546 156.292C77.2765 155.6 77.3702 154.923 77.6515 154.277C77.9327 153.632 78.3546 153.096 78.9327 152.671C79.5108 152.246 80.1358 151.994 80.8233 151.931C81.5108 151.868 82.1827 151.978 82.8077 152.278C83.4483 152.577 83.9796 153.017 84.4171 153.616C84.7296 154.041 84.9483 154.529 85.0889 155.048C85.2296 155.568 85.2452 156.088 85.1671 156.607L84.1983 156.544C84.3233 156.119 84.3077 155.71 84.2139 155.285Z" fill="#E1B168"/>
    <path d="M91.0739 162.307C91.2301 163 91.2145 163.677 91.027 164.354C90.8239 165.031 90.4645 165.598 89.9332 166.086C89.402 166.574 88.8082 166.889 88.1207 167.031C87.4332 167.172 86.7614 167.141 86.0895 166.92C85.4176 166.7 84.8395 166.306 84.3395 165.771C83.8395 165.236 83.5114 164.606 83.3551 163.913C83.1989 163.221 83.2145 162.528 83.4176 161.867C83.6207 161.19 83.9801 160.607 84.5114 160.119C85.0426 159.631 85.6364 159.316 86.3239 159.174C86.9957 159.033 87.6832 159.08 88.3395 159.3C89.0114 159.521 89.5895 159.914 90.0895 160.465C90.5739 161.001 90.902 161.615 91.0739 162.307ZM88.1051 160.261C87.6051 160.103 87.0895 160.072 86.5895 160.182C86.0739 160.292 85.6207 160.528 85.2301 160.89C84.8395 161.253 84.5582 161.693 84.402 162.197C84.2457 162.701 84.2301 163.221 84.3395 163.74C84.4489 164.26 84.6832 164.716 85.0426 165.11C85.402 165.504 85.8239 165.771 86.3239 165.929C86.8239 166.086 87.3239 166.102 87.8395 165.992C88.3551 165.881 88.8082 165.645 89.2145 165.283C89.6207 164.921 89.8864 164.48 90.0426 163.976C90.1989 163.472 90.2145 162.969 90.1051 162.449C89.9957 161.93 89.7614 161.489 89.402 161.095C89.027 160.702 88.6051 160.434 88.1051 160.261Z" fill="#E1B168"/>
    <path d="M94.8555 165.424L95.6367 166.132L91.1836 171.17L93.6836 173.406L93.043 174.13L89.7617 171.186L94.8555 165.424Z" fill="#E1B168"/>
    <path d="M100.262 170.1L104.543 173.28L103.98 174.051L100.543 171.501L99.1367 173.422L102.199 175.705L101.637 176.476L98.5586 174.193L97.1055 176.177L100.637 178.806L100.074 179.578L95.6992 176.319L100.262 170.1Z" fill="#E1B168"/>
    <path d="M110.09 176.824L115.371 179.658L114.918 180.508L112.73 179.343L109.574 185.295L108.652 184.791L111.809 178.839L109.637 177.674L110.09 176.824Z" fill="#E1B168"/>
    <path d="M122.043 183.058C122.48 183.609 122.762 184.239 122.855 184.932C122.965 185.624 122.871 186.301 122.605 186.963C122.34 187.624 121.918 188.175 121.355 188.6C120.793 189.025 120.168 189.277 119.465 189.371C118.762 189.466 118.074 189.356 117.387 189.072C116.699 188.789 116.152 188.364 115.715 187.813C115.277 187.262 115.012 186.632 114.902 185.923C114.793 185.231 114.887 184.538 115.152 183.877C115.418 183.215 115.84 182.664 116.387 182.255C116.933 181.846 117.574 181.594 118.262 181.499C118.965 181.421 119.652 181.515 120.34 181.798C121.043 182.082 121.605 182.491 122.043 183.058ZM118.496 182.475C117.98 182.538 117.512 182.743 117.09 183.058C116.668 183.373 116.355 183.782 116.152 184.286C115.949 184.79 115.887 185.309 115.965 185.829C116.043 186.349 116.246 186.821 116.558 187.246C116.887 187.671 117.293 187.986 117.777 188.191C118.277 188.395 118.777 188.458 119.293 188.38C119.808 188.301 120.277 188.112 120.699 187.781C121.121 187.466 121.433 187.057 121.637 186.553C121.84 186.049 121.902 185.546 121.824 185.026C121.746 184.506 121.558 184.034 121.23 183.625C120.902 183.215 120.512 182.901 120.027 182.696C119.527 182.475 119.012 182.412 118.496 182.475Z" fill="#E1B168"/>
    <path d="M136.059 187.105C136.59 187.578 136.965 188.144 137.184 188.806C137.402 189.467 137.434 190.144 137.277 190.852C137.121 191.561 136.809 192.159 136.324 192.679C135.84 193.198 135.262 193.56 134.59 193.765C133.918 193.97 133.215 194.001 132.496 193.828C131.777 193.671 131.152 193.356 130.621 192.883C130.09 192.411 129.715 191.829 129.496 191.167C129.277 190.49 129.246 189.813 129.402 189.105C129.559 188.396 129.871 187.798 130.355 187.294C130.84 186.79 131.402 186.428 132.074 186.224C132.746 186.019 133.449 186.003 134.168 186.161C134.902 186.318 135.527 186.633 136.059 187.105ZM132.465 187.152C131.965 187.31 131.527 187.578 131.168 187.971C130.809 188.365 130.574 188.806 130.449 189.341C130.324 189.876 130.355 190.396 130.527 190.9C130.699 191.403 130.965 191.829 131.355 192.191C131.746 192.553 132.199 192.789 132.715 192.899C133.23 193.009 133.746 192.994 134.23 192.82C134.73 192.663 135.152 192.38 135.512 192.002C135.871 191.608 136.105 191.152 136.23 190.632C136.355 190.097 136.324 189.593 136.168 189.089C136.012 188.585 135.73 188.16 135.355 187.814C134.98 187.467 134.527 187.215 134.012 187.105C133.48 186.979 132.965 186.995 132.465 187.152Z" fill="#E1B168"/>
    <path d="M141.731 193.843C142.075 194.284 142.59 194.536 143.278 194.599C143.95 194.662 144.497 194.52 144.919 194.158C145.34 193.796 145.59 193.261 145.669 192.552L146.122 188.018L147.169 188.128L146.715 192.662C146.622 193.67 146.247 194.426 145.622 194.93C144.997 195.449 144.184 195.654 143.184 195.544C142.169 195.449 141.419 195.071 140.903 194.442C140.387 193.812 140.184 192.993 140.278 192.001L140.731 187.467L141.778 187.577L141.325 192.111C141.247 192.836 141.372 193.402 141.731 193.843Z" fill="#E1B168"/>
    <path d="M155.559 195.922L153.996 193.529C153.824 193.545 153.684 193.561 153.574 193.561L151.621 193.592L151.668 196.001L150.621 196.017L150.496 188.302L153.496 188.255C154.465 188.239 155.215 188.459 155.762 188.9C156.293 189.341 156.574 189.987 156.59 190.805C156.605 191.435 156.465 191.955 156.184 192.395C155.902 192.821 155.496 193.135 154.965 193.34L156.793 195.922H155.559ZM153.559 192.584C154.215 192.569 154.715 192.427 155.059 192.128C155.402 191.829 155.574 191.404 155.559 190.837C155.543 190.286 155.371 189.876 155.012 189.593C154.652 189.31 154.152 189.184 153.496 189.199L151.543 189.231L151.605 192.632L153.559 192.584Z" fill="#E1B168"/>
    <path d="M170.246 194.268L168.34 192.142C168.168 192.189 168.027 192.221 167.918 192.237L165.996 192.567L166.402 194.929L165.371 195.102L164.09 187.498L167.043 186.994C167.996 186.836 168.777 186.931 169.371 187.277C169.965 187.623 170.34 188.222 170.48 189.04C170.59 189.655 170.527 190.206 170.324 190.662C170.105 191.134 169.762 191.512 169.262 191.78L171.449 194.047L170.246 194.268ZM167.762 191.292C168.402 191.182 168.887 190.946 169.184 190.615C169.48 190.269 169.574 189.812 169.48 189.261C169.387 188.71 169.152 188.332 168.762 188.112C168.371 187.891 167.855 187.844 167.199 187.954L165.277 188.285L165.84 191.623L167.762 191.292Z" fill="#E1B168"/>
    <path d="M173.152 185.734L178.277 184.285L178.543 185.214L174.434 186.379L175.074 188.678L178.746 187.639L179.012 188.568L175.34 189.607L175.996 191.968L180.23 190.772L180.496 191.701L175.246 193.181L173.152 185.734Z" fill="#E1B168"/>
    <path d="M184.792 183.042C184.402 183.073 184.042 183.152 183.746 183.278C183.339 183.436 183.027 183.656 182.839 183.908C182.652 184.16 182.621 184.427 182.73 184.711C182.824 184.963 182.98 185.136 183.199 185.246C183.417 185.341 183.636 185.404 183.902 185.404C184.152 185.404 184.495 185.404 184.933 185.372C185.48 185.341 185.917 185.325 186.277 185.341C186.62 185.356 186.964 185.467 187.277 185.655C187.589 185.844 187.839 186.159 188.011 186.6C188.167 187.009 188.199 187.419 188.105 187.812C188.011 188.206 187.792 188.568 187.449 188.899C187.105 189.229 186.699 189.481 186.183 189.686C185.667 189.891 185.105 189.985 184.542 189.985C183.98 189.985 183.433 189.875 182.933 189.67L183.042 188.647C183.511 188.852 183.996 188.962 184.496 188.977C184.995 188.993 185.433 188.914 185.839 188.757C186.308 188.568 186.652 188.332 186.855 188.033C187.058 187.734 187.089 187.435 186.964 187.104C186.87 186.852 186.714 186.679 186.495 186.569C186.277 186.458 186.042 186.411 185.777 186.395C185.511 186.395 185.167 186.411 184.73 186.443C184.199 186.49 183.761 186.506 183.402 186.474C183.058 186.458 182.714 186.348 182.402 186.175C182.089 185.986 181.855 185.671 181.683 185.246C181.527 184.868 181.511 184.49 181.605 184.113C181.699 183.735 181.917 183.388 182.23 183.089C182.542 182.79 182.964 182.522 183.464 182.333C183.886 182.16 184.339 182.066 184.792 182.034C185.246 182.003 185.683 182.019 186.089 182.113L186.027 183.152C185.589 183.026 185.183 182.995 184.792 183.042Z" fill="#E1B168"/>
    <path d="M187.887 180.554L193.23 177.846L193.668 178.712L191.465 179.829L194.465 185.86L193.527 186.332L190.527 180.302L188.324 181.42L187.887 180.554Z" fill="#E1B168"/>
    <path d="M203.746 180.429L202.074 179.264L198.652 181.421L198.965 183.436L198.027 184.019L196.871 175.659L197.793 175.076L204.715 179.815L203.746 180.429ZM198.496 180.382L201.23 178.666L197.887 176.351L198.496 180.382Z" fill="#E1B168"/>
    <path d="M207.434 175.925C207.98 176.004 208.527 175.815 209.074 175.39C209.605 174.965 209.902 174.477 209.965 173.926C210.027 173.375 209.84 172.808 209.402 172.257L206.605 168.667L207.434 168.006L210.23 171.596C210.84 172.383 211.105 173.186 211.012 173.989C210.918 174.792 210.465 175.516 209.684 176.146C208.887 176.775 208.09 177.043 207.277 176.949C206.465 176.854 205.762 176.413 205.137 175.626L202.34 172.036L203.168 171.375L205.965 174.965C206.387 175.532 206.871 175.862 207.434 175.925Z" fill="#E1B168"/>
    <path d="M218.793 167.801L216.027 167.14C215.918 167.266 215.824 167.376 215.73 167.454L214.34 168.824L216.012 170.54L215.262 171.28L209.902 165.77L212.043 163.66C212.73 162.967 213.434 162.605 214.121 162.558C214.809 162.511 215.449 162.778 216.027 163.377C216.465 163.818 216.73 164.306 216.809 164.809C216.902 165.313 216.824 165.833 216.559 166.352L219.652 166.951L218.793 167.801ZM215.059 166.777C215.527 166.321 215.777 165.849 215.84 165.408C215.887 164.951 215.715 164.526 215.324 164.117C214.934 163.723 214.527 163.55 214.074 163.597C213.621 163.644 213.168 163.896 212.699 164.353L211.309 165.723L213.668 168.147L215.059 166.777Z" fill="#E1B168"/>
    <path d="M225.871 159.582L223.918 159.031L221.355 162.18L222.293 163.991L221.59 164.857L217.824 157.315L218.512 156.465L226.59 158.701L225.871 159.582ZM220.887 161.235L222.918 158.732L219.012 157.614L220.887 161.235Z" fill="#E1B168"/>
    <path d="M225.043 147.161L225.605 146.279L232.043 150.452L231.465 151.349L224.105 151.821L229.09 155.049L228.527 155.931L222.09 151.758L222.668 150.861L230.043 150.389L225.043 147.161Z" fill="#E1B168"/>
    <path d="M226.855 144.06L229.559 138.676L230.418 139.117L229.309 141.337L235.277 144.391L234.809 145.336L228.84 142.281L227.73 144.501L226.855 144.06Z" fill="#E1B168"/>
    <path d="M232.84 133.542C232.59 133.857 232.418 134.172 232.293 134.471C232.137 134.88 232.074 135.258 232.137 135.573C232.199 135.888 232.371 136.092 232.652 136.203C232.902 136.297 233.137 136.313 233.355 136.218C233.574 136.124 233.777 135.998 233.949 135.809C234.121 135.62 234.355 135.368 234.621 135.022C234.965 134.597 235.262 134.266 235.512 134.014C235.762 133.762 236.074 133.589 236.418 133.479C236.762 133.369 237.168 133.416 237.605 133.589C238.012 133.746 238.324 133.998 238.543 134.345C238.762 134.691 238.871 135.1 238.887 135.557C238.902 136.029 238.793 136.517 238.59 137.037C238.387 137.557 238.074 138.029 237.684 138.454C237.277 138.879 236.84 139.194 236.371 139.414L235.699 138.643C236.168 138.438 236.574 138.155 236.918 137.793C237.262 137.431 237.512 137.053 237.668 136.659C237.855 136.187 237.902 135.762 237.824 135.415C237.746 135.069 237.543 134.833 237.23 134.691C236.98 134.597 236.746 134.581 236.527 134.675C236.309 134.754 236.105 134.896 235.918 135.085C235.73 135.274 235.512 135.541 235.246 135.888C234.918 136.313 234.621 136.643 234.371 136.895C234.121 137.147 233.824 137.32 233.465 137.415C233.121 137.525 232.73 137.478 232.293 137.305C231.918 137.147 231.621 136.911 231.402 136.58C231.199 136.25 231.09 135.872 231.074 135.415C231.074 134.975 231.168 134.502 231.355 133.983C231.527 133.558 231.746 133.148 232.043 132.786C232.324 132.424 232.637 132.125 232.98 131.889L233.699 132.644C233.371 132.944 233.074 133.227 232.84 133.542Z" fill="#E1B168"/>
    <path d="M152.777 117.578C149.262 117.578 145.84 116.823 142.605 115.343C140.184 116.476 137.621 117.043 134.98 117.043C124.949 117.043 116.777 108.809 116.777 98.7011C116.777 90.1047 122.762 82.6262 131.059 80.7999C135.402 72.7388 143.684 67.7637 152.777 67.7637C165.793 67.7637 176.527 77.9187 177.402 90.9707C181.512 93.537 184.043 98.0871 184.043 102.952C184.043 110.73 177.762 117.059 170.043 117.059C167.652 117.059 165.293 116.429 163.184 115.233C159.902 116.791 156.387 117.578 152.777 117.578ZM142.605 113.611L142.949 113.768C149.309 116.775 156.605 116.728 162.902 113.627L163.277 113.438L163.637 113.658C165.59 114.839 167.809 115.469 170.059 115.469C176.918 115.469 182.496 109.848 182.496 102.936C182.496 98.4807 180.105 94.3242 176.262 92.0885L175.887 91.8681L175.871 91.443C175.246 79.0365 165.105 69.3066 152.777 69.3066C144.137 69.3066 136.277 74.1086 132.262 81.839L132.09 82.1696L131.73 82.2484C123.98 83.807 118.34 90.7188 118.34 98.6853C118.34 107.927 125.809 115.453 134.98 115.453C137.512 115.453 139.949 114.87 142.262 113.753L142.605 113.611Z" fill="#E1B168"/>
    <path d="M168.746 132.283H132.09V115.248L132.965 115.358C133.73 115.453 134.371 115.5 134.98 115.5C137.512 115.5 139.949 114.917 142.262 113.8L142.605 113.611L142.949 113.768C149.309 116.775 156.605 116.728 162.902 113.626L163.277 113.438L163.637 113.658C164.996 114.477 166.48 115.028 168.09 115.295L168.746 115.406V132.283ZM133.652 130.709H167.184V116.728C165.777 116.429 164.434 115.925 163.199 115.217C156.684 118.287 149.168 118.334 142.605 115.343C140.184 116.476 137.621 117.043 134.98 117.043C134.559 117.043 134.121 117.027 133.652 116.98V130.709Z" fill="#E1B168"/>
    <path d="M134.871 93.3167C134.434 93.3167 134.09 92.9703 134.09 92.5295C134.09 82.28 142.371 73.9355 152.543 73.9355C152.98 73.9355 153.324 74.2819 153.324 74.7228C153.324 75.1636 152.98 75.51 152.543 75.51C143.23 75.51 135.652 83.1459 135.652 92.5295C135.652 92.9703 135.309 93.3167 134.871 93.3167Z" fill="#E1B168"/>
    <path d="M299.637 78.7854H194.246C193.809 78.7854 193.465 78.439 193.465 77.9981C193.465 77.5573 193.809 77.2109 194.246 77.2109H299.637C300.074 77.2109 300.418 77.5573 300.418 77.9981C300.418 78.439 300.074 78.7854 299.637 78.7854Z" fill="#E1B168"/>
    <path d="M299.637 122.854H194.246C193.809 122.854 193.465 122.507 193.465 122.067C193.465 121.626 193.809 121.279 194.246 121.279H299.637C300.074 121.279 300.418 121.626 300.418 122.067C300.418 122.507 300.074 122.854 299.637 122.854Z" fill="#E1B168"/>
    <path d="M106.59 78.7854H1.19922C0.761719 78.7854 0.417969 78.439 0.417969 77.9981C0.417969 77.5573 0.761719 77.2109 1.19922 77.2109H106.59C107.027 77.2109 107.371 77.5573 107.371 77.9981C107.371 78.439 107.012 78.7854 106.59 78.7854Z" fill="#E1B168"/>
    <path d="M106.59 122.854H1.19922C0.761719 122.854 0.417969 122.507 0.417969 122.067C0.417969 121.626 0.761719 121.279 1.19922 121.279H106.59C107.027 121.279 107.371 121.626 107.371 122.067C107.371 122.507 107.012 122.854 106.59 122.854Z" fill="#E1B168"/>
    <path d="M60.043 103.912H33.0117C30.8867 103.912 29.1523 102.165 29.1523 100.024C29.1523 97.8824 30.8867 96.1348 33.0117 96.1348H62.168C62.6055 96.1348 62.9492 96.4811 62.9492 96.922C62.9492 97.3628 62.6055 97.7092 62.168 97.7092H33.0117C31.7461 97.7092 30.7148 98.7483 30.7148 100.024C30.7148 101.299 31.7461 102.338 33.0117 102.338H60.0273C60.4648 102.338 60.8086 102.684 60.8086 103.125C60.8086 103.566 60.4648 103.912 60.043 103.912Z" fill="#E1B168"/>
    <path d="M15.8242 111.139C7.62109 111.139 0.933594 106.164 0.933594 100.039C0.933594 93.9146 7.60547 88.9395 15.8242 88.9395C24.0273 88.9395 30.7148 93.9146 30.7148 100.039C30.7148 106.164 24.043 111.139 15.8242 111.139ZM15.8242 90.4981C8.48047 90.4981 2.49609 94.7806 2.49609 100.023C2.49609 105.282 8.48047 109.549 15.8242 109.549C23.168 109.549 29.1523 105.266 29.1523 100.023C29.1523 94.7806 23.1836 90.4981 15.8242 90.4981Z" fill="#E1B168"/>
    <path d="M266.09 103.912H239.074C238.637 103.912 238.293 103.566 238.293 103.125C238.293 102.684 238.637 102.338 239.074 102.338H266.09C267.355 102.338 268.387 101.299 268.387 100.024C268.387 98.7483 267.355 97.7092 266.09 97.7092H236.934C236.496 97.7092 236.152 97.3628 236.152 96.922C236.152 96.4811 236.496 96.1348 236.934 96.1348H266.09C268.215 96.1348 269.949 97.8824 269.949 100.024C269.949 102.181 268.215 103.912 266.09 103.912Z" fill="#E1B168"/>
    <path d="M280.918 107.393H275.699C271.668 107.393 268.387 104.087 268.387 100.025C268.387 95.9625 271.668 92.6562 275.699 92.6562H280.918V107.393ZM275.699 94.2464C272.527 94.2464 269.949 96.8442 269.949 100.04C269.949 103.236 272.527 105.834 275.699 105.834H279.355V94.2622H275.699V94.2464Z" fill="#E1B168"/>
    <path d="M297.387 94.2463H280.152C279.715 94.2463 279.371 93.8999 279.371 93.4591C279.371 93.0182 279.715 92.6719 280.152 92.6719H297.387C297.824 92.6719 298.168 93.0182 298.168 93.4591C298.168 93.8999 297.809 94.2463 297.387 94.2463Z" fill="#E1B168"/>
    <path d="M297.387 100.813H280.152C279.715 100.813 279.371 100.466 279.371 100.025C279.371 99.5847 279.715 99.2383 280.152 99.2383H297.387C297.824 99.2383 298.168 99.5847 298.168 100.025C298.168 100.466 297.809 100.813 297.387 100.813Z" fill="#E1B168"/>
    <path d="M297.387 107.393H280.152C279.715 107.393 279.371 107.046 279.371 106.606C279.371 106.165 279.715 105.818 280.152 105.818H297.387C297.824 105.818 298.168 106.165 298.168 106.606C298.168 107.046 297.809 107.393 297.387 107.393Z" fill="#E1B168"/>
    <path d="M102.371 111.139H88.7148C88.2773 111.139 87.9336 110.792 87.9336 110.352C87.9336 109.911 88.2773 109.564 88.7148 109.564H102.371C102.809 109.564 103.152 109.911 103.152 110.352C103.152 110.792 102.809 111.139 102.371 111.139Z" fill="#E1B168"/>
    <path d="M101.699 99.4084H75.7773C75.3398 99.4084 74.9961 99.062 74.9961 98.6212C74.9961 98.1804 75.3398 97.834 75.7773 97.834H101.699C102.137 97.834 102.48 98.1804 102.48 98.6212C102.48 99.062 102.137 99.4084 101.699 99.4084Z" fill="#E1B168"/>
    <path d="M103.418 87.6799H89.7617C89.3242 87.6799 88.9805 87.3335 88.9805 86.8927C88.9805 86.4518 89.3242 86.1055 89.7617 86.1055H103.418C103.855 86.1055 104.199 86.4518 104.199 86.8927C104.199 87.3335 103.855 87.6799 103.418 87.6799Z" fill="#E1B168"/>
    <path d="M102.355 105.266H82.0742C81.6367 105.266 81.293 104.919 81.293 104.479C81.293 104.038 81.6367 103.691 82.0742 103.691H102.355C102.793 103.691 103.137 104.038 103.137 104.479C103.137 104.919 102.777 105.266 102.355 105.266Z" fill="#E1B168"/>
    <path d="M102.246 93.4572H81.9648C81.5273 93.4572 81.1836 93.1109 81.1836 92.67C81.1836 92.2292 81.5273 91.8828 81.9648 91.8828H102.246C102.684 91.8828 103.027 92.2292 103.027 92.67C103.027 93.1109 102.684 93.4572 102.246 93.4572Z" fill="#E1B168"/>
    <path d="M212.105 89.0822H198.449C198.012 89.0822 197.668 88.7359 197.668 88.295C197.668 87.8542 198.012 87.5078 198.449 87.5078H212.105C212.543 87.5078 212.887 87.8542 212.887 88.295C212.887 88.7359 212.543 89.0822 212.105 89.0822Z" fill="#E1B168"/>
    <path d="M225.059 100.811H199.137C198.699 100.811 198.355 100.464 198.355 100.024C198.355 99.5827 198.699 99.2363 199.137 99.2363H225.059C225.496 99.2363 225.84 99.5827 225.84 100.024C225.84 100.464 225.496 100.811 225.059 100.811Z" fill="#E1B168"/>
    <path d="M211.059 112.541H197.402C196.965 112.541 196.621 112.195 196.621 111.754C196.621 111.313 196.965 110.967 197.402 110.967H211.059C211.496 110.967 211.84 111.313 211.84 111.754C211.84 112.195 211.496 112.541 211.059 112.541Z" fill="#E1B168"/>
    <path d="M218.762 94.9553H198.48C198.043 94.9553 197.699 94.6089 197.699 94.1681C197.699 93.7272 198.043 93.3809 198.48 93.3809H218.762C219.199 93.3809 219.543 93.7272 219.543 94.1681C219.543 94.6089 219.199 94.9553 218.762 94.9553Z" fill="#E1B168"/>
    <path d="M218.871 106.762H198.59C198.152 106.762 197.809 106.416 197.809 105.975C197.809 105.534 198.152 105.188 198.59 105.188H218.871C219.309 105.188 219.652 105.534 219.652 105.975C219.652 106.416 219.293 106.762 218.871 106.762Z" fill="#E1B168"/>
    </svg>
    