<?xml version="1.0" encoding="UTF-8"?>
<svg xmlns="http://www.w3.org/2000/svg" xmlns:xlink="http://www.w3.org/1999/xlink" width="100px" height="100px" viewBox="0 0 100 100" version="1.1">
<defs>
<clipPath id="clip1">
  <path d="M 20 33 L 36 33 L 36 50 L 20 50 Z M 20 33 "/>
</clipPath>
<clipPath id="clip2">
  <path d="M 28.117188 33.164062 L 27.441406 33.164062 L 20.367188 49.625 L 21.417969 49.625 L 23.882812 43.859375 L 27.355469 49.777344 L 27.988281 49.777344 L 31.503906 43.730469 L 34.058594 49.777344 L 35.105469 49.777344 Z M 27.738281 48.363281 L 24.472656 42.726562 L 27.738281 34.675781 L 31.003906 42.683594 Z M 27.738281 48.363281 "/>
</clipPath>
<linearGradient id="linear0" gradientUnits="userSpaceOnUse" x1="0.000000000000909495" y1="1000" x2="1" y2="1000" gradientTransform="matrix(0,-16.61299,-16.61299,0,16640.73125,49.776999)">
<stop offset="0" style="stop-color:rgb(88.235294%,77.254902%,62.745098%);stop-opacity:1;"/>
<stop offset="0.0257" style="stop-color:rgb(86.666667%,75.686275%,61.176471%);stop-opacity:1;"/>
<stop offset="0.2034" style="stop-color:rgb(77.647059%,65.098039%,50.588235%);stop-opacity:1;"/>
<stop offset="0.3851" style="stop-color:rgb(71.372549%,57.647059%,43.137255%);stop-opacity:1;"/>
<stop offset="0.5716" style="stop-color:rgb(67.45098%,53.333333%,38.823529%);stop-opacity:1;"/>
<stop offset="0.7703" style="stop-color:rgb(66.27451%,51.764706%,37.254902%);stop-opacity:1;"/>
<stop offset="1" style="stop-color:rgb(49.019608%,34.117647%,21.176471%);stop-opacity:1;"/>
</linearGradient>
<clipPath id="clip3">
  <path d="M 35 33 L 47 33 L 47 50 L 35 50 Z M 35 33 "/>
</clipPath>
<clipPath id="clip4">
  <path d="M 36.742188 43.753906 L 43.203125 39.757812 L 43.203125 38.929688 L 36.671875 38.921875 L 36.742188 34.082031 L 46.304688 34.082031 L 46.304688 33.164062 L 35.695312 33.164062 L 35.695312 39.84375 L 41.328125 39.84375 L 35.695312 43.335938 L 35.695312 49.777344 L 36.742188 49.777344 Z M 36.742188 43.753906 "/>
</clipPath>
<linearGradient id="linear1" gradientUnits="userSpaceOnUse" x1="-0.000000000000909495" y1="1000" x2="1" y2="1000" gradientTransform="matrix(0,-16.6131,-16.6131,0,16654.096875,49.777399)">
<stop offset="0" style="stop-color:rgb(88.235294%,77.254902%,62.745098%);stop-opacity:1;"/>
<stop offset="0.0257" style="stop-color:rgb(86.666667%,75.686275%,61.176471%);stop-opacity:1;"/>
<stop offset="0.2034" style="stop-color:rgb(77.647059%,65.098039%,50.588235%);stop-opacity:1;"/>
<stop offset="0.3851" style="stop-color:rgb(71.372549%,57.647059%,43.137255%);stop-opacity:1;"/>
<stop offset="0.5716" style="stop-color:rgb(67.45098%,53.333333%,38.823529%);stop-opacity:1;"/>
<stop offset="0.7703" style="stop-color:rgb(66.27451%,51.764706%,37.254902%);stop-opacity:1;"/>
<stop offset="1" style="stop-color:rgb(49.019608%,34.117647%,21.176471%);stop-opacity:1;"/>
</linearGradient>
<clipPath id="clip5">
  <path d="M 47 33 L 60 33 L 60 50 L 47 50 Z M 47 33 "/>
</clipPath>
<clipPath id="clip6">
  <path d="M 53.070312 49.777344 L 54.03125 49.777344 L 54.03125 37.226562 L 49.121094 34.148438 L 59.96875 34.148438 L 59.96875 33.164062 L 47.15625 33.164062 L 47.15625 34.148438 L 53.070312 37.703125 Z M 53.070312 49.777344 "/>
</clipPath>
<linearGradient id="linear2" gradientUnits="userSpaceOnUse" x1="-0.000000000000909495" y1="1000" x2="1" y2="1000" gradientTransform="matrix(0,-16.6131,-16.6131,0,16666.660938,49.777399)">
<stop offset="0" style="stop-color:rgb(88.235294%,77.254902%,62.745098%);stop-opacity:1;"/>
<stop offset="0.0257" style="stop-color:rgb(86.666667%,75.686275%,61.176471%);stop-opacity:1;"/>
<stop offset="0.2034" style="stop-color:rgb(77.647059%,65.098039%,50.588235%);stop-opacity:1;"/>
<stop offset="0.3851" style="stop-color:rgb(71.372549%,57.647059%,43.137255%);stop-opacity:1;"/>
<stop offset="0.5716" style="stop-color:rgb(67.45098%,53.333333%,38.823529%);stop-opacity:1;"/>
<stop offset="0.7703" style="stop-color:rgb(66.27451%,51.764706%,37.254902%);stop-opacity:1;"/>
<stop offset="1" style="stop-color:rgb(49.019608%,34.117647%,21.176471%);stop-opacity:1;"/>
</linearGradient>
<clipPath id="clip7">
  <path d="M 60 33 L 72 33 L 72 50 L 60 50 Z M 60 33 "/>
</clipPath>
<clipPath id="clip8">
  <path d="M 66.257812 39.777344 L 66.257812 39.777344 M 60.757812 33.164062 L 60.757812 39.777344 C 60.757812 39.777344 66.144531 39.824219 66.257812 39.78125 C 66.144531 39.847656 60.757812 43.207031 60.757812 43.207031 L 60.757812 49.667969 L 71.496094 49.667969 L 71.496094 48.796875 L 61.71875 48.796875 L 61.71875 43.6875 L 68.15625 39.886719 L 68.15625 38.90625 L 61.652344 38.929688 L 61.652344 34.167969 L 71.179688 34.167969 L 71.179688 33.164062 Z M 60.757812 33.164062 "/>
</clipPath>
<linearGradient id="linear3" gradientUnits="userSpaceOnUse" x1="0" y1="1000" x2="1" y2="1000" gradientTransform="matrix(0,-16.503999,-16.503999,0,16570.125,49.667999)">
<stop offset="0" style="stop-color:rgb(88.235294%,77.254902%,62.745098%);stop-opacity:1;"/>
<stop offset="0.0257" style="stop-color:rgb(86.666667%,75.686275%,61.176471%);stop-opacity:1;"/>
<stop offset="0.2034" style="stop-color:rgb(77.647059%,65.098039%,50.588235%);stop-opacity:1;"/>
<stop offset="0.3851" style="stop-color:rgb(71.372549%,57.647059%,43.137255%);stop-opacity:1;"/>
<stop offset="0.5716" style="stop-color:rgb(67.45098%,53.333333%,38.823529%);stop-opacity:1;"/>
<stop offset="0.7703" style="stop-color:rgb(66.27451%,51.764706%,37.254902%);stop-opacity:1;"/>
<stop offset="1" style="stop-color:rgb(49.019608%,34.117647%,21.176471%);stop-opacity:1;"/>
</linearGradient>
<clipPath id="clip9">
  <path d="M 72 33 L 84 33 L 84 50 L 72 50 Z M 72 33 "/>
</clipPath>
<clipPath id="clip10">
  <path d="M 73.230469 34.128906 L 78.640625 34.128906 L 73.230469 47.203125 Z M 79.554688 34.128906 C 79.554688 34.128906 83.273438 35.410156 82.441406 39.460938 C 81.945312 41.347656 80.710938 42.460938 79.78125 42.460938 L 76.144531 42.460938 Z M 72.246094 33.164062 L 72.246094 49.777344 L 73.148438 49.777344 L 75.722656 43.496094 L 78.640625 43.496094 L 82.5625 49.777344 L 83.707031 49.777344 L 79.78125 43.453125 L 79.777344 43.453125 C 80.636719 43.28125 83.460938 42.414062 83.460938 38.535156 C 83.460938 37.734375 83.351562 37.050781 83.175781 36.464844 C 82.578125 34.496094 80.742188 33.164062 78.6875 33.164062 Z M 72.246094 33.164062 "/>
</clipPath>
<linearGradient id="linear4" gradientUnits="userSpaceOnUse" x1="0.000000000000909495" y1="1000" x2="1" y2="1000" gradientTransform="matrix(0,-16.61299,-16.61299,0,16690.971875,49.776999)">
<stop offset="0" style="stop-color:rgb(88.235294%,77.254902%,62.745098%);stop-opacity:1;"/>
<stop offset="0.0257" style="stop-color:rgb(86.666667%,75.686275%,61.176471%);stop-opacity:1;"/>
<stop offset="0.2034" style="stop-color:rgb(77.647059%,65.098039%,50.588235%);stop-opacity:1;"/>
<stop offset="0.3851" style="stop-color:rgb(71.372549%,57.647059%,43.137255%);stop-opacity:1;"/>
<stop offset="0.5716" style="stop-color:rgb(67.45098%,53.333333%,38.823529%);stop-opacity:1;"/>
<stop offset="0.7703" style="stop-color:rgb(66.27451%,51.764706%,37.254902%);stop-opacity:1;"/>
<stop offset="1" style="stop-color:rgb(49.019608%,34.117647%,21.176471%);stop-opacity:1;"/>
</linearGradient>
<clipPath id="clip11">
  <path d="M 77 57 L 78 57 L 78 58 L 77 58 Z M 77 57 "/>
</clipPath>
<clipPath id="clip12">
  <path d="M 77.808594 57.109375 L 77.792969 57.109375 C 77.652344 57.097656 77.515625 57.085938 77.378906 57.066406 C 77.519531 57.085938 77.664062 57.097656 77.808594 57.109375 "/>
</clipPath>
<linearGradient id="linear5" gradientUnits="userSpaceOnUse" x1="0.00076591" y1="1000.000427" x2="1" y2="1000.000427" gradientTransform="matrix(0,0.04383,0.04383,0,33.76449,57.067169)">
<stop offset="0" style="stop-color:rgb(88.235294%,77.254902%,62.745098%);stop-opacity:1;"/>
<stop offset="0.0257" style="stop-color:rgb(86.666667%,75.686275%,61.176471%);stop-opacity:1;"/>
<stop offset="0.2034" style="stop-color:rgb(77.647059%,65.098039%,50.588235%);stop-opacity:1;"/>
<stop offset="0.3851" style="stop-color:rgb(71.372549%,57.647059%,43.137255%);stop-opacity:1;"/>
<stop offset="0.5716" style="stop-color:rgb(67.45098%,53.333333%,38.823529%);stop-opacity:1;"/>
<stop offset="0.7703" style="stop-color:rgb(66.27451%,51.764706%,37.254902%);stop-opacity:1;"/>
<stop offset="1" style="stop-color:rgb(49.019608%,34.117647%,21.176471%);stop-opacity:1;"/>
</linearGradient>
<clipPath id="clip13">
  <path d="M 76 57 L 78 57 L 78 58 L 76 58 Z M 76 57 "/>
</clipPath>
<clipPath id="clip14">
  <path d="M 76.992188 57.011719 L 77.464844 57.066406 L 76.96875 57.007812 C 76.976562 57.007812 76.984375 57.007812 76.992188 57.011719 "/>
</clipPath>
<linearGradient id="linear6" gradientUnits="userSpaceOnUse" x1="0.000000000000909495" y1="999.999878" x2="0.9993" y2="999.999878" gradientTransform="matrix(0,0.06165,0.06165,0,15.571449,57.007001)">
<stop offset="0" style="stop-color:rgb(88.235294%,77.254902%,62.745098%);stop-opacity:1;"/>
<stop offset="0.0257" style="stop-color:rgb(86.666667%,75.686275%,61.176471%);stop-opacity:1;"/>
<stop offset="0.2034" style="stop-color:rgb(77.647059%,65.098039%,50.588235%);stop-opacity:1;"/>
<stop offset="0.3851" style="stop-color:rgb(71.372549%,57.647059%,43.137255%);stop-opacity:1;"/>
<stop offset="0.5716" style="stop-color:rgb(67.45098%,53.333333%,38.823529%);stop-opacity:1;"/>
<stop offset="0.7703" style="stop-color:rgb(66.27451%,51.764706%,37.254902%);stop-opacity:1;"/>
<stop offset="1" style="stop-color:rgb(49.019608%,34.117647%,21.176471%);stop-opacity:1;"/>
</linearGradient>
<clipPath id="clip15">
  <path d="M 79 50 L 81 50 L 81 51 L 79 51 Z M 79 50 "/>
</clipPath>
<clipPath id="clip16">
  <path d="M 80.34375 50.738281 C 80.34375 50.738281 80.339844 50.738281 80.339844 50.738281 L 79.449219 50.605469 Z M 80.34375 50.738281 "/>
</clipPath>
<linearGradient id="linear7" gradientUnits="userSpaceOnUse" x1="0" y1="1000" x2="1" y2="1000" gradientTransform="matrix(0,0.133,0.133,0,-53.098608,50.607001)">
<stop offset="0" style="stop-color:rgb(88.235294%,77.254902%,62.745098%);stop-opacity:1;"/>
<stop offset="0.0257" style="stop-color:rgb(86.666667%,75.686275%,61.176471%);stop-opacity:1;"/>
<stop offset="0.2034" style="stop-color:rgb(77.647059%,65.098039%,50.588235%);stop-opacity:1;"/>
<stop offset="0.3851" style="stop-color:rgb(71.372549%,57.647059%,43.137255%);stop-opacity:1;"/>
<stop offset="0.5716" style="stop-color:rgb(67.45098%,53.333333%,38.823529%);stop-opacity:1;"/>
<stop offset="0.7703" style="stop-color:rgb(66.27451%,51.764706%,37.254902%);stop-opacity:1;"/>
<stop offset="1" style="stop-color:rgb(49.019608%,34.117647%,21.176471%);stop-opacity:1;"/>
</linearGradient>
<clipPath id="clip17">
  <path d="M 38 52 L 43 52 L 43 64 L 38 64 Z M 38 52 "/>
</clipPath>
<clipPath id="clip18">
  <path d="M 39.714844 56.527344 C 39.167969 56.726562 38.777344 57.25 38.777344 57.863281 C 38.777344 58.546875 39.257812 59.117188 39.898438 59.25 L 41.488281 63.917969 L 42.664062 63.53125 L 40.96875 59.054688 C 41.355469 58.800781 41.613281 58.363281 41.613281 57.863281 C 41.613281 57.316406 41.300781 56.839844 40.84375 56.605469 L 41.488281 53.207031 C 41.488281 53.207031 40.449219 52.941406 40.367188 52.921875 C 40.285156 52.921875 39.714844 56.527344 39.714844 56.527344 "/>
</clipPath>
<linearGradient id="linear8" gradientUnits="userSpaceOnUse" x1="-0.00000138753" y1="1000" x2="1" y2="1000" gradientTransform="matrix(0,10.99709,10.99709,0,-10956.364844,52.921912)">
<stop offset="0" style="stop-color:rgb(88.235294%,77.254902%,62.745098%);stop-opacity:1;"/>
<stop offset="0.0257" style="stop-color:rgb(86.666667%,75.686275%,61.176471%);stop-opacity:1;"/>
<stop offset="0.2034" style="stop-color:rgb(77.647059%,65.098039%,50.588235%);stop-opacity:1;"/>
<stop offset="0.3851" style="stop-color:rgb(71.372549%,57.647059%,43.137255%);stop-opacity:1;"/>
<stop offset="0.5716" style="stop-color:rgb(67.45098%,53.333333%,38.823529%);stop-opacity:1;"/>
<stop offset="0.7703" style="stop-color:rgb(66.27451%,51.764706%,37.254902%);stop-opacity:1;"/>
<stop offset="1" style="stop-color:rgb(49.019608%,34.117647%,21.176471%);stop-opacity:1;"/>
</linearGradient>
<clipPath id="clip19">
  <path d="M 61 50 L 73 50 L 73 66 L 61 66 Z M 61 50 "/>
</clipPath>
<clipPath id="clip20">
  <path d="M 62.4375 50.882812 L 67.617188 50.882812 L 62.4375 63.265625 Z M 65.203125 58.902344 L 68.566406 50.882812 C 68.566406 50.882812 71.378906 51.648438 71.378906 55.105469 C 71.378906 56.835938 70.675781 57.761719 69.972656 58.257812 C 69.453125 58.625 68.878906 58.941406 68.242188 58.960938 Z M 61.558594 50 L 61.558594 65.851562 L 62.292969 65.851562 L 64.832031 59.789062 L 67.617188 59.789062 L 71.378906 65.851562 L 72.523438 65.851562 L 68.6875 59.734375 L 68.683594 59.734375 C 69.402344 59.621094 70.085938 59.332031 70.65625 58.871094 C 71.484375 58.210938 72.246094 57.082031 72.246094 55.179688 C 72.246094 53.078125 71.398438 51.777344 70.5625 51.003906 C 69.855469 50.355469 68.925781 50 67.964844 50 Z M 61.558594 50 "/>
</clipPath>
<linearGradient id="linear9" gradientUnits="userSpaceOnUse" x1="0" y1="1000" x2="1" y2="1000" gradientTransform="matrix(0,15.853,15.853,0,-15785.954687,50)">
<stop offset="0" style="stop-color:rgb(88.235294%,77.254902%,62.745098%);stop-opacity:1;"/>
<stop offset="0.0257" style="stop-color:rgb(86.666667%,75.686275%,61.176471%);stop-opacity:1;"/>
<stop offset="0.2034" style="stop-color:rgb(77.647059%,65.098039%,50.588235%);stop-opacity:1;"/>
<stop offset="0.3851" style="stop-color:rgb(71.372549%,57.647059%,43.137255%);stop-opacity:1;"/>
<stop offset="0.5716" style="stop-color:rgb(67.45098%,53.333333%,38.823529%);stop-opacity:1;"/>
<stop offset="0.7703" style="stop-color:rgb(66.27451%,51.764706%,37.254902%);stop-opacity:1;"/>
<stop offset="1" style="stop-color:rgb(49.019608%,34.117647%,21.176471%);stop-opacity:1;"/>
</linearGradient>
<clipPath id="clip21">
  <path d="M 73 49 L 85 49 L 85 66 L 73 66 Z M 73 49 "/>
</clipPath>
<clipPath id="clip22">
  <path d="M 75.0625 56.160156 C 74.410156 55.496094 74.082031 54.292969 74.238281 53.378906 C 74.449219 52.589844 74.988281 51.878906 75.660156 51.414062 C 76.296875 50.957031 77.054688 50.796875 77.824219 50.683594 C 78.347656 50.597656 78.902344 50.566406 79.449219 50.605469 L 76.964844 57.007812 C 76.21875 56.878906 75.546875 56.640625 75.0625 56.160156 M 77.691406 49.789062 C 77.039062 49.890625 76.34375 50.023438 75.746094 50.324219 C 74.699219 50.832031 73.871094 51.746094 73.464844 52.835938 C 73.140625 53.734375 73.332031 54.730469 73.660156 55.597656 C 74.828125 58.535156 78.242188 57.789062 80.710938 58.234375 C 81.839844 58.433594 82.9375 59.132812 83.554688 60.089844 C 84.125 61.015625 83.914062 62.398438 83.335938 63.3125 C 82.921875 63.957031 82.222656 64.363281 81.5 64.613281 C 80.367188 64.992188 79.101562 65.085938 77.921875 64.902344 C 76.355469 64.597656 74.839844 63.753906 73.683594 62.65625 L 73.089844 63.261719 C 74.714844 64.785156 76.859375 65.875 79.125 65.847656 C 80.484375 65.828125 81.875 65.578125 83.03125 64.8125 C 84.617188 63.8125 85.28125 61.261719 84.300781 59.640625 C 83.558594 58.457031 82.226562 57.613281 80.878906 57.371094 C 79.984375 57.175781 78.867188 57.199219 77.808594 57.109375 L 80.347656 50.738281 C 81.386719 50.980469 82.332031 51.519531 82.910156 52.460938 L 83.730469 52.054688 C 83.695312 51.984375 83.664062 51.941406 83.628906 51.878906 C 82.613281 50.324219 80.765625 49.679688 78.964844 49.679688 C 78.535156 49.679688 78.105469 49.71875 77.691406 49.789062 "/>
</clipPath>
<linearGradient id="linear10" gradientUnits="userSpaceOnUse" x1="-0.000000188759" y1="1000.016113" x2="1" y2="1000.016113" gradientTransform="matrix(0,16.167461,16.167461,0,-16088.532813,49.680109)">
<stop offset="0" style="stop-color:rgb(88.235294%,77.254902%,62.745098%);stop-opacity:1;"/>
<stop offset="0.0257" style="stop-color:rgb(86.666667%,75.686275%,61.176471%);stop-opacity:1;"/>
<stop offset="0.2034" style="stop-color:rgb(77.647059%,65.098039%,50.588235%);stop-opacity:1;"/>
<stop offset="0.3851" style="stop-color:rgb(71.372549%,57.647059%,43.137255%);stop-opacity:1;"/>
<stop offset="0.5716" style="stop-color:rgb(67.45098%,53.333333%,38.823529%);stop-opacity:1;"/>
<stop offset="0.7703" style="stop-color:rgb(66.27451%,51.764706%,37.254902%);stop-opacity:1;"/>
<stop offset="1" style="stop-color:rgb(49.019608%,34.117647%,21.176471%);stop-opacity:1;"/>
</linearGradient>
<clipPath id="clip23">
  <path d="M 20 49 L 61 49 L 61 66 L 20 66 Z M 20 49 "/>
</clipPath>
<clipPath id="clip24">
  <path d="M 52.242188 64.4375 L 53.371094 64.8125 C 52.964844 64.722656 52.585938 64.597656 52.242188 64.4375 M 22.296875 58.050781 L 30.402344 58.050781 L 26.351562 60.601562 Z M 49.054688 59.699219 C 49.054688 59.191406 49.050781 58.046875 49.046875 56.703125 L 52.222656 64.429688 C 49.9375 63.367188 49.054688 60.964844 49.054688 59.699219 M 33.105469 57.863281 C 33.105469 53.949219 36.277344 50.773438 40.195312 50.773438 C 44.109375 50.773438 47.285156 53.949219 47.285156 57.863281 C 47.285156 61.78125 44.109375 64.953125 40.195312 64.953125 C 36.277344 64.953125 33.105469 61.78125 33.105469 57.863281 M 59.96875 49.667969 L 59.96875 58.527344 C 59.96875 59.574219 59.785156 60.617188 59.390625 61.589844 C 58.753906 63.160156 57.4375 64.953125 54.738281 64.953125 C 54.25 64.953125 53.800781 64.902344 53.382812 64.816406 C 53.355469 64.757812 49.734375 56.664062 49.125 55.042969 L 49.09375 54.945312 C 49.085938 54.824219 49.070312 54.753906 49.042969 54.761719 C 49.039062 53.484375 49.035156 52.210938 49.03125 51.257812 C 49.027344 50.300781 49.023438 49.667969 49.023438 49.667969 L 48.121094 49.667969 L 48.234375 57.027344 C 47.816406 52.957031 44.378906 49.78125 40.195312 49.78125 C 36.21875 49.78125 32.914062 52.648438 32.238281 56.429688 L 32.238281 50 L 31.378906 50 L 31.378906 57.21875 L 21.4375 57.21875 L 21.4375 50 L 20.367188 50 L 20.367188 65.726562 L 21.390625 65.726562 L 21.390625 58.503906 L 26.492188 61.578125 L 31.378906 58.480469 L 31.378906 65.726562 L 32.238281 65.726562 L 32.238281 59.300781 C 32.914062 63.078125 36.21875 65.949219 40.195312 65.949219 C 44.464844 65.949219 47.964844 62.636719 48.257812 58.4375 L 48.277344 59.789062 C 48.277344 59.789062 48.8125 65.949219 54.679688 65.949219 C 60.542969 65.949219 60.757812 59.328125 60.757812 59.328125 L 60.757812 49.667969 Z M 59.96875 49.667969 "/>
</clipPath>
<linearGradient id="linear11" gradientUnits="userSpaceOnUse" x1="0" y1="1000" x2="1" y2="1000" gradientTransform="matrix(0,16.28,16.28,0,-16239.435938,49.667999)">
<stop offset="0" style="stop-color:rgb(88.235294%,77.254902%,62.745098%);stop-opacity:1;"/>
<stop offset="0.0257" style="stop-color:rgb(86.666667%,75.686275%,61.176471%);stop-opacity:1;"/>
<stop offset="0.2034" style="stop-color:rgb(77.647059%,65.098039%,50.588235%);stop-opacity:1;"/>
<stop offset="0.3851" style="stop-color:rgb(71.372549%,57.647059%,43.137255%);stop-opacity:1;"/>
<stop offset="0.5716" style="stop-color:rgb(67.45098%,53.333333%,38.823529%);stop-opacity:1;"/>
<stop offset="0.7703" style="stop-color:rgb(66.27451%,51.764706%,37.254902%);stop-opacity:1;"/>
<stop offset="1" style="stop-color:rgb(49.019608%,34.117647%,21.176471%);stop-opacity:1;"/>
</linearGradient>
</defs>
<g id="surface1">
<g clip-path="url(#clip1)" clip-rule="nonzero">
<g clip-path="url(#clip2)" clip-rule="nonzero">
<path style=" stroke:none;fill-rule:nonzero;fill:url(#linear0);" d="M 20.367188 33.164062 L 35.105469 33.164062 L 35.105469 49.777344 L 20.367188 49.777344 Z M 20.367188 33.164062 "/>
</g>
</g>
<g clip-path="url(#clip3)" clip-rule="nonzero">
<g clip-path="url(#clip4)" clip-rule="nonzero">
<path style=" stroke:none;fill-rule:nonzero;fill:url(#linear1);" d="M 35.695312 33.164062 L 46.304688 33.164062 L 46.304688 49.777344 L 35.695312 49.777344 Z M 35.695312 33.164062 "/>
</g>
</g>
<g clip-path="url(#clip5)" clip-rule="nonzero">
<g clip-path="url(#clip6)" clip-rule="nonzero">
<path style=" stroke:none;fill-rule:nonzero;fill:url(#linear2);" d="M 47.15625 33.164062 L 59.96875 33.164062 L 59.96875 49.777344 L 47.15625 49.777344 Z M 47.15625 33.164062 "/>
</g>
</g>
<g clip-path="url(#clip7)" clip-rule="nonzero">
<g clip-path="url(#clip8)" clip-rule="nonzero">
<path style=" stroke:none;fill-rule:nonzero;fill:url(#linear3);" d="M 60.757812 33.164062 L 71.496094 33.164062 L 71.496094 49.667969 L 60.757812 49.667969 Z M 60.757812 33.164062 "/>
</g>
</g>
<g clip-path="url(#clip9)" clip-rule="nonzero">
<g clip-path="url(#clip10)" clip-rule="nonzero">
<path style=" stroke:none;fill-rule:nonzero;fill:url(#linear4);" d="M 72.246094 33.164062 L 83.707031 33.164062 L 83.707031 49.777344 L 72.246094 49.777344 Z M 72.246094 33.164062 "/>
</g>
</g>
<path style=" stroke:none;fill-rule:nonzero;fill:rgb(100%,100%,100%);fill-opacity:1;" d="M 20.585938 68.617188 L 83.304688 68.617188 L 83.304688 69.1875 L 20.585938 69.1875 Z M 20.585938 68.617188 "/>
<path style=" stroke:none;fill-rule:nonzero;fill:rgb(100%,100%,100%);fill-opacity:1;" d="M 41 29.710938 L 83.273438 29.710938 L 83.273438 30.21875 L 41 30.21875 Z M 41 29.710938 "/>
<path style=" stroke:none;fill-rule:nonzero;fill:rgb(100%,100%,100%);fill-opacity:1;" d="M 20.664062 29.710938 L 25.65625 29.710938 L 25.65625 30.21875 L 20.664062 30.21875 Z M 20.664062 29.710938 "/>
<path style=" stroke:none;fill-rule:nonzero;fill:rgb(100%,100%,100%);fill-opacity:1;" d="M 28.167969 31.3125 C 27.894531 31.167969 27.683594 30.964844 27.527344 30.707031 C 27.371094 30.449219 27.296875 30.15625 27.296875 29.832031 C 27.296875 29.503906 27.371094 29.214844 27.527344 28.953125 C 27.683594 28.695312 27.894531 28.492188 28.167969 28.347656 C 28.4375 28.203125 28.742188 28.128906 29.082031 28.128906 C 29.367188 28.128906 29.625 28.179688 29.855469 28.277344 C 30.085938 28.378906 30.277344 28.523438 30.433594 28.710938 L 29.945312 29.160156 C 29.722656 28.90625 29.445312 28.777344 29.117188 28.777344 C 28.914062 28.777344 28.734375 28.820312 28.574219 28.910156 C 28.414062 29 28.289062 29.125 28.199219 29.285156 C 28.109375 29.445312 28.066406 29.628906 28.066406 29.828125 C 28.066406 30.035156 28.109375 30.214844 28.199219 30.375 C 28.289062 30.535156 28.414062 30.660156 28.574219 30.75 C 28.734375 30.839844 28.914062 30.882812 29.117188 30.882812 C 29.445312 30.882812 29.722656 30.753906 29.945312 30.492188 L 30.433594 30.945312 C 30.277344 31.136719 30.082031 31.28125 29.851562 31.382812 C 29.617188 31.480469 29.359375 31.53125 29.074219 31.53125 C 28.742188 31.53125 28.4375 31.460938 28.167969 31.3125 Z M 28.167969 31.3125 "/>
<path style=" stroke:none;fill-rule:nonzero;fill:rgb(100%,100%,100%);fill-opacity:1;" d="M 32.96875 30.769531 L 31.441406 30.769531 L 31.148438 31.476562 L 30.371094 31.476562 L 31.835938 28.1875 L 32.589844 28.1875 L 34.058594 31.476562 L 33.261719 31.476562 Z M 32.730469 30.191406 L 32.207031 28.933594 L 31.683594 30.191406 Z M 32.730469 30.191406 "/>
<path style=" stroke:none;fill-rule:nonzero;fill:rgb(100%,100%,100%);fill-opacity:1;" d="M 35.082031 28.796875 L 35.082031 29.664062 L 36.605469 29.664062 L 36.605469 30.277344 L 35.082031 30.277344 L 35.082031 31.476562 L 34.320312 31.476562 L 34.320312 28.183594 L 36.808594 28.183594 L 36.808594 28.796875 Z M 35.082031 28.796875 "/>
<path style=" stroke:none;fill-rule:nonzero;fill:rgb(100%,100%,100%);fill-opacity:1;" d="M 39.792969 30.863281 L 39.792969 31.476562 L 37.246094 31.476562 L 37.246094 28.1875 L 39.730469 28.1875 L 39.730469 28.796875 L 38.003906 28.796875 L 38.003906 29.511719 L 39.53125 29.511719 L 39.53125 30.101562 L 38.003906 30.101562 L 38.003906 30.863281 Z M 38.699219 27.242188 L 39.488281 27.242188 L 38.636719 27.917969 L 38.0625 27.917969 Z M 38.699219 27.242188 "/>
<g clip-path="url(#clip11)" clip-rule="nonzero">
<g clip-path="url(#clip12)" clip-rule="nonzero">
<path style=" stroke:none;fill-rule:nonzero;fill:url(#linear5);" d="M 77.378906 57.066406 L 77.808594 57.066406 L 77.808594 57.109375 L 77.378906 57.109375 Z M 77.378906 57.066406 "/>
</g>
</g>
<g clip-path="url(#clip13)" clip-rule="nonzero">
<g clip-path="url(#clip14)" clip-rule="nonzero">
<path style=" stroke:none;fill-rule:nonzero;fill:url(#linear6);" d="M 76.96875 57.007812 L 77.464844 57.007812 L 77.464844 57.070312 L 76.96875 57.070312 Z M 76.96875 57.007812 "/>
</g>
</g>
<g clip-path="url(#clip15)" clip-rule="nonzero">
<g clip-path="url(#clip16)" clip-rule="nonzero">
<path style=" stroke:none;fill-rule:nonzero;fill:url(#linear7);" d="M 79.449219 50.605469 L 80.34375 50.605469 L 80.34375 50.738281 L 79.449219 50.738281 Z M 79.449219 50.605469 "/>
</g>
</g>
<g clip-path="url(#clip17)" clip-rule="nonzero">
<g clip-path="url(#clip18)" clip-rule="nonzero">
<path style=" stroke:none;fill-rule:nonzero;fill:url(#linear8);" d="M 38.777344 52.921875 L 42.664062 52.921875 L 42.664062 63.917969 L 38.777344 63.917969 Z M 38.777344 52.921875 "/>
</g>
</g>
<g clip-path="url(#clip19)" clip-rule="nonzero">
<g clip-path="url(#clip20)" clip-rule="nonzero">
<path style=" stroke:none;fill-rule:nonzero;fill:url(#linear9);" d="M 61.558594 50 L 72.523438 50 L 72.523438 65.851562 L 61.558594 65.851562 Z M 61.558594 50 "/>
</g>
</g>
<g clip-path="url(#clip21)" clip-rule="nonzero">
<g clip-path="url(#clip22)" clip-rule="nonzero">
<path style=" stroke:none;fill-rule:nonzero;fill:url(#linear10);" d="M 73.089844 49.679688 L 85.28125 49.679688 L 85.28125 65.875 L 73.089844 65.875 Z M 73.089844 49.679688 "/>
</g>
</g>
<g clip-path="url(#clip23)" clip-rule="nonzero">
<g clip-path="url(#clip24)" clip-rule="nonzero">
<path style=" stroke:none;fill-rule:nonzero;fill:url(#linear11);" d="M 20.367188 49.667969 L 60.757812 49.667969 L 60.757812 65.949219 L 20.367188 65.949219 Z M 20.367188 49.667969 "/>
</g>
</g>
</g>
</svg>
